<svg width="24" height="24" viewBox="0 0 24 24" fill="none" xmlns="http://www.w3.org/2000/svg">
<path d="M5.47784 5.52203C5.27073 5.72914 5.27073 6.06493 5.47784 6.27204L11.4779 12.2721L5.47785 18.2722C5.27074 18.4793 5.27074 18.8151 5.47785 19.0222C5.68495 19.2293 6.02074 19.2293 6.22785 19.0222L12.2279 13.0221L18.228 19.0222C18.4351 19.2293 18.7709 19.2293 18.978 19.0222C19.1851 18.815 19.1851 18.4793 18.978 18.2721L12.978 12.2721L18.978 6.27212C19.1851 6.06501 19.1851 5.72922 18.978 5.52212C18.7709 5.31501 18.4351 5.31501 18.228 5.52212L12.2279 11.5221L6.22785 5.52203C6.02074 5.31492 5.68495 5.31492 5.47784 5.52203Z" fill="#252542"/>
</svg>
