<svg id="图层_1" data-name="图层 1" xmlns="http://www.w3.org/2000/svg" xmlns:xlink="http://www.w3.org/1999/xlink" viewBox="0 0 453 453"><defs><style>.cls-1{fill:url(#未命名的渐变);}.cls-2{fill:#fff;}.cls-2,.cls-3,.cls-4{fill-rule:evenodd;}.cls-3{fill:url(#未命名的渐变_2);}.cls-4{fill:url(#未命名的渐变_3);}.cls-5{fill:url(#未命名的渐变_22);}</style><linearGradient id="未命名的渐变" x1="226.72" y1="454" x2="226.72" y2="1" gradientTransform="matrix(1, 0, 0, -1, 0, 454)" gradientUnits="userSpaceOnUse"><stop offset="0" stop-color="#e7ecef"/><stop offset="1" stop-color="#f7f8f9"/></linearGradient><linearGradient id="未命名的渐变_2" x1="204.77" y1="389.36" x2="204.77" y2="70.79" gradientTransform="matrix(1, 0, 0, -1, 0, 454)" gradientUnits="userSpaceOnUse"><stop offset="0" stop-color="#20203d"/><stop offset="0.93" stop-color="#292946"/></linearGradient><linearGradient id="未命名的渐变_3" x1="304.74" y1="361.48" x2="304.74" y2="100.41" gradientTransform="matrix(1, 0, 0, -1, 0, 454)" gradientUnits="userSpaceOnUse"><stop offset="0" stop-color="#51516c"/><stop offset="0.93" stop-color="#797abc"/></linearGradient><linearGradient id="未命名的渐变_22" x1="216.07" y1="293.89" x2="236.67" y2="166.08" gradientUnits="userSpaceOnUse"><stop offset="0.05" stop-color="#7a7bbd"/><stop offset="0.85" stop-color="#252543"/></linearGradient></defs><title>imbtc-banner-bg</title><path class="cls-1" d="M226.72,453c125.09,0,226.5-101.41,226.5-226.5S351.81,0,226.72,0,.22,101.41.22,226.5,101.63,453,226.72,453Z" transform="translate(-0.22)"/><path class="cls-2" d="M226.72,431.3c114.55,0,207.41-92.85,207.41-207.4S341.27,16.49,226.72,16.49,19.31,109.35,19.31,223.9,112.17,431.3,226.72,431.3Z" transform="translate(-0.22)"/><path class="cls-3" d="M335.05,111.35a137.49,137.49,0,1,0,11.4,212.44,159.28,159.28,0,1,1-11.4-212.44Z" transform="translate(-0.22)"/><path class="cls-4" d="M229.48,95.45a127.18,127.18,0,0,1-7.68,253.3,130.53,130.53,0,1,0,7.68-253.3Z" transform="translate(-0.22)"/><path class="cls-5" d="M284.05,270.66a37.36,37.36,0,0,1-12.91,14.16,53.41,53.41,0,0,1-19,7.28,132.95,132.95,0,0,1-46.85,0,53.27,53.27,0,0,1-19.05-7.28,36.47,36.47,0,0,1-12.8-14.16q-4.69-9-4.69-22.56V176.9a2.6,2.6,0,0,1,1.25-2.16,5,5,0,0,1,2.92-.88h27.27a5,5,0,0,1,2.92.88,2.59,2.59,0,0,1,1.24,2.16v71.2q0,12.16,5.21,17.68t19.15,5.52a42.9,42.9,0,0,0,11.77-1.36,17,17,0,0,0,7.49-4.16,16,16,0,0,0,4.06-7.2,38.34,38.34,0,0,0,1.25-10.48V176.9a2.6,2.6,0,0,1,1.25-2.16,5,5,0,0,1,2.92-.88h27.06a5.47,5.47,0,0,1,3,.88,2.56,2.56,0,0,1,1.35,2.16v71.2Q288.83,261.71,284.05,270.66Z" transform="translate(-0.22)"/></svg>