<svg width="80" height="80" viewBox="0 0 80 80" fill="none" xmlns="http://www.w3.org/2000/svg">
<path d="M40 79C61.5391 79 79 61.5391 79 40C79 18.4609 61.5391 1 40 1C18.4609 1 1 18.4609 1 40C1 61.5391 18.4609 79 40 79Z" fill="white" stroke="#71828A" stroke-opacity="0.2"/>
<circle cx="40.5" cy="40" r="20" fill="#5F55A9" fill-opacity="0.1"/>
<path d="M40.3799 45.2306V29.0307C40.3799 28.6804 39.9116 28.5601 39.7521 28.872C38.0026 32.2935 32.9989 42.0527 29.9213 47.7893C29.7219 48.1611 30.0454 48.5946 30.4598 48.515L39.028 46.8672C39.8127 46.7163 40.3799 46.0297 40.3799 45.2306Z" stroke="#5F55A9" stroke-width="2"/>
<path d="M40.3799 45.2306V29.0307C40.3799 28.6804 40.8482 28.5601 41.0077 28.872C42.7572 32.2935 47.7609 42.0527 50.8385 47.7892C51.038 48.1611 50.7144 48.5946 50.3 48.5149L41.7318 46.8672C40.9471 46.7163 40.3799 46.0297 40.3799 45.2306Z" stroke="#5F55A9" stroke-width="2"/>
<path d="M65.3751 40C65.3751 53.8071 54.1822 65 40.3751 65C26.568 65 15.3751 53.8071 15.3751 40C15.3751 26.1929 26.568 15 40.3751 15" stroke="#5F55A9" stroke-width="2" stroke-linecap="round" stroke-linejoin="round"/>
<path d="M69.4583 47.3094L64.6615 38.6178L58.2766 46.2271" stroke="#5F55A9" stroke-width="2" stroke-linecap="round" stroke-linejoin="round"/>
</svg>
