<svg width="24" height="25" viewBox="0 0 24 25" fill="none" xmlns="http://www.w3.org/2000/svg">
<rect x="1" y="1.5" width="22" height="22" rx="3.62411" fill="#181818"/>
<g clip-path="url(#clip0)">
<path d="M14.9695 16.1664C14.9695 17.9019 13.5687 19.3105 11.841 19.3105C10.1133 19.3105 8.7125 17.9019 8.7125 16.1664C8.7125 15.4504 8.94597 14.7967 9.34287 14.2753C9.34287 14.2753 9.34287 14.2753 9.34287 14.2675C9.36621 14.2364 9.38956 14.2053 9.41291 14.1819C9.55299 14.0263 9.73977 13.7928 9.75533 13.8006C9.77089 13.8084 10.1522 14.0185 10.3001 14.1119C10.5258 14.2597 11.0005 14.5866 11.0005 14.5944C10.7592 14.8901 10.6814 15.038 10.5803 15.1625C10.4869 15.287 10.409 15.4193 10.3468 15.5672C10.2845 15.7384 10.2456 15.9174 10.2378 16.1119C10.2145 16.9524 10.8449 17.6917 11.6776 17.7696C12.6348 17.8629 13.4364 17.1081 13.4364 16.1664C13.4364 15.6139 13.1562 15.1236 12.736 14.8356H12.7282L12.5414 14.7267L11.5686 14.1508L11.5608 14.143L10.3157 13.4115L9.81759 13.1157C9.79424 13.1002 9.77868 13.0924 9.75533 13.0768C9.68529 13.0379 9.61525 12.9912 9.55299 12.9445C8.52572 12.2208 7.85645 11.0301 7.85645 9.67595C7.85645 7.47356 9.63081 5.69141 11.8254 5.69141C14.02 5.69141 15.7944 7.47356 15.7944 9.67595C15.7944 10.9445 15.2029 12.0729 14.2846 12.8044C14.0667 12.9757 13.7632 13.0068 13.5142 12.8589L12.269 12.1429C12.1678 12.0885 12.1134 11.9795 12.1134 11.8628V10.3608C12.1134 10.3297 12.1367 10.3063 12.1678 10.3063H12.7593V8.70316H12.1678C12.1367 8.70316 12.1134 8.67981 12.1134 8.64869V7.85489C12.1134 7.8082 12.0745 7.7615 12.02 7.7615C11.8099 7.7615 11.3274 7.7615 11.125 7.7615C11.0783 7.7615 11.0316 7.80041 11.0316 7.85489V11.8239C11.0316 11.9873 11.1172 12.1352 11.2573 12.213L12.1056 12.7033L13.2807 13.3881C13.2963 13.3959 13.3118 13.4037 13.3352 13.4192L13.3897 13.4504C13.4208 13.4659 13.4441 13.4815 13.4753 13.4971C14.378 14.0418 14.9695 15.0302 14.9695 16.1664Z" fill="white"/>
</g>
<defs>
<clipPath id="clip0">
<rect width="7.93796" height="13.619" fill="white" transform="translate(7.85645 5.69141)"/>
</clipPath>
</defs>
</svg>
