<svg width="20" height="14" viewBox="0 0 20 14" fill="none" xmlns="http://www.w3.org/2000/svg">
<path d="M9.67896 13.739C4.85649 14.1504 0.37849 11.3386 0.0340278 6.9494C-0.310434 3.38317 2.03191 1.8058 3.82311 1.66864C5.6832 1.53148 7.26772 2.76594 7.40551 4.27473C7.54329 5.71494 6.5788 6.40075 5.95877 6.46933C5.40763 6.53792 4.7876 6.19501 4.71871 5.57778C4.64982 5.02913 4.92538 4.96054 4.85649 4.34331C4.7876 3.31459 3.82311 3.17743 3.27197 3.24601C2.65194 3.31459 1.48077 4.00041 1.68744 5.78352C1.82523 7.56664 3.61643 8.93826 5.95877 8.73252C8.43889 8.52677 10.2301 6.67508 10.3679 4.00041C10.3679 3.86324 10.4368 3.72608 10.4368 3.58892C10.5057 3.52034 10.5057 3.52034 10.5057 3.45176C10.5746 3.31459 10.6434 3.24601 10.7123 3.17743L10.919 2.97169C12.0213 2.01155 15.9482 -0.388798 19.6683 0.365596H19.7372C19.875 0.365596 19.9439 0.434177 19.9439 0.57134C20.6328 9.21259 14.8459 13.3275 9.67896 13.739Z" fill="white"/>
</svg>
