<svg width="24" height="24" viewBox="0 0 24 24" fill="none" xmlns="http://www.w3.org/2000/svg">
<g clip-path="url(#clip0)">
<path d="M21.8712 16.615L20.4775 21.327L17.7417 20.5788L21.8712 16.615Z" fill="#E4761B" stroke="#E4761B" stroke-width="0.0571157"/>
<path d="M17.7417 20.5788L20.3804 16.9634L21.8712 16.615L17.7417 20.5788Z" fill="#E4761B" stroke="#E4761B" stroke-width="0.0571157"/>
<path d="M19.8206 13.0623L21.871 16.6149L20.3803 16.9633L19.8206 13.0623ZM19.8206 13.0623L21.1399 12.1484L21.871 16.6149L19.8206 13.0623Z" fill="#F6851B" stroke="#F6851B" stroke-width="0.0571157"/>
<path d="M18.1416 10.378L21.9341 8.82446L21.7456 9.67549L18.1416 10.378ZM21.6257 10.6979L18.1416 10.378L21.7456 9.67549L21.6257 10.6979Z" fill="#763D16" stroke="#763D16" stroke-width="0.0571157"/>
<path d="M21.6257 10.6979L21.1402 12.1486L18.1416 10.378L21.6257 10.6979ZM22.3853 9.18429L21.7456 9.67549L21.9341 8.82446L22.3853 9.18429ZM21.6257 10.6979L21.7456 9.67549L22.2539 10.0981L21.6257 10.6979Z" fill="#763D16" stroke="#763D16" stroke-width="0.0571157"/>
<path d="M14.8003 19.4309L15.7484 19.7336L17.7417 20.5789L14.8003 19.4309Z" fill="#E2761B" stroke="#E2761B" stroke-width="0.0571157"/>
<path d="M21.1401 12.1485L21.6256 10.6978L22.0425 11.0176L21.1401 12.1485ZM21.1401 12.1485L17.2048 10.852L18.1415 10.3779L21.1401 12.1485Z" fill="#763D16" stroke="#763D16" stroke-width="0.0571157"/>
<path d="M19.0782 5.92871L18.1415 10.378L17.2048 10.8521L19.0782 5.92871Z" fill="#763D16" stroke="#763D16" stroke-width="0.0571157"/>
<path d="M21.9341 8.82447L18.1416 10.378L19.0783 5.92871L21.9341 8.82447Z" fill="#763D16" stroke="#763D16" stroke-width="0.0571157"/>
<path d="M19.0781 5.9286L23.0362 5.47168L21.9339 8.82437L19.0781 5.9286Z" fill="#763D16" stroke="#763D16" stroke-width="0.0571157"/>
<path d="M21.1401 12.1486L19.8207 13.0624L17.2048 10.8521L21.1401 12.1486Z" fill="#F6851B" stroke="#F6851B" stroke-width="0.0571157"/>
<path d="M22.8649 2.26758L23.0362 5.47177L19.0781 5.92869L22.8649 2.26758Z" fill="#763D16" stroke="#763D16" stroke-width="0.0571157"/>
<path d="M22.8649 2.26758L14.9544 8.01912L14.8516 4.11813L22.8649 2.26758Z" fill="#E2761B" stroke="#E2761B" stroke-width="0.0571157"/>
<path d="M8.96875 3.64941L14.8517 4.11776L14.9545 8.01876L8.96875 3.64941Z" fill="#F6851B" stroke="#F6851B" stroke-width="0.0571157"/>
<path d="M17.2047 10.8521L14.9543 8.01914L19.0781 5.92871L17.2047 10.8521Z" fill="#763D16" stroke="#763D16" stroke-width="0.0571157"/>
<path d="M17.2048 10.8521L19.8207 13.0624L16.1482 13.4679L17.2048 10.8521Z" fill="#E4761B" stroke="#E4761B" stroke-width="0.0571157"/>
<path d="M16.1481 13.4679L14.9543 8.01904L17.2047 10.852L16.1481 13.4679Z" fill="#E4761B" stroke="#E4761B" stroke-width="0.0571157"/>
<path d="M19.0781 5.92869L14.9543 8.01912L22.8649 2.26758L19.0781 5.92869Z" fill="#763D16" stroke="#763D16" stroke-width="0.0571157"/>
<path d="M9.02016 20.4874L10.8878 22.435L8.34619 20.1218L9.02016 20.4874Z" fill="#C0AD9E" stroke="#C0AD9E" stroke-width="0.0571157"/>
<path d="M17.7417 20.5788L18.627 17.2147L20.3804 16.9634L17.7417 20.5788Z" fill="#CD6116" stroke="#CD6116" stroke-width="0.0571157"/>
<path d="M1.44653 11.1147L4.67928 7.71631L1.86348 10.7092L1.44653 11.1147Z" fill="#E2761B" stroke="#E2761B" stroke-width="0.0571157"/>
<path d="M20.3805 16.9631L18.627 17.2144L19.8207 13.0621L20.3805 16.9631ZM14.9545 8.01876L11.8074 7.91595L8.96875 3.64941L14.9545 8.01876Z" fill="#F6851B" stroke="#F6851B" stroke-width="0.0571157"/>
<path d="M19.8206 13.0625L18.6269 17.2148L18.5298 15.1872L19.8206 13.0625Z" fill="#E4751F" stroke="#E4751F" stroke-width="0.0571157"/>
<path d="M16.1482 13.468L19.8207 13.0625L18.5299 15.1872L16.1482 13.468Z" fill="#CD6116" stroke="#CD6116" stroke-width="0.0571157"/>
<path d="M11.8074 7.9165L14.9544 8.01931L16.1482 13.4681L11.8074 7.9165Z" fill="#F6851B" stroke="#F6851B" stroke-width="0.0571157"/>
<path d="M11.8074 7.91624L3.3143 0.0571289L8.96875 3.6497L11.8074 7.91624ZM8.96304 21.6811L1.58369 23.9657L0.110107 18.3399L8.96304 21.6811Z" fill="#E4761B" stroke="#E4761B" stroke-width="0.0571157"/>
<path d="M2.54321 12.5198L5.33046 10.3323L7.66649 10.8749L2.54321 12.5198Z" fill="#763D16" stroke="#763D16" stroke-width="0.0571157"/>
<path d="M7.66635 10.8748L5.33032 10.3322L6.58115 5.16895L7.66635 10.8748Z" fill="#763D16" stroke="#763D16" stroke-width="0.0571157"/>
<path d="M1.86353 10.7092L5.33045 10.3323L2.5432 12.5198L1.86353 10.7092Z" fill="#763D16" stroke="#763D16" stroke-width="0.0571157"/>
<path d="M18.5299 15.1872L17.0906 14.4618L16.1482 13.468L18.5299 15.1872Z" fill="#CD6116" stroke="#CD6116" stroke-width="0.0571157"/>
<path d="M1.86352 10.7091L1.61792 9.4126L5.33044 10.3322L1.86352 10.7091Z" fill="#763D16" stroke="#763D16" stroke-width="0.0571157"/>
<path d="M16.7935 16.0952L17.0905 14.4617L18.5298 15.187L16.7935 16.0952Z" fill="#233447" stroke="#233447" stroke-width="0.0571157"/>
<path d="M18.6269 17.2146L16.7935 16.0952L18.5298 15.187L18.6269 17.2146Z" fill="#F6851B" stroke="#F6851B" stroke-width="0.0571157"/>
<path d="M5.33042 10.3322L1.6179 9.41264L1.31519 8.32173L5.33042 10.3322ZM6.58125 5.16895L5.33042 10.3322L1.31519 8.32173L6.58125 5.16895ZM6.58125 5.16895L11.8073 7.91621L7.66645 10.8748L6.58125 5.16895Z" fill="#763D16" stroke="#763D16" stroke-width="0.0571157"/>
<path d="M7.6665 10.8751L11.8074 7.9165L13.6522 13.5538L7.6665 10.8751ZM13.6522 13.5538L7.92924 13.4339L7.6665 10.8751L13.6522 13.5538Z" fill="#E4761B" stroke="#E4761B" stroke-width="0.0571157"/>
<path d="M2.54321 12.52L7.66649 10.8751L7.92922 13.4339L2.54321 12.52ZM16.1482 13.4681L13.6522 13.5538L11.8074 7.9165L16.1482 13.4681Z" fill="#F6851B" stroke="#F6851B" stroke-width="0.0571157"/>
<path d="M17.0906 14.4618L16.7936 16.0953L16.1482 13.468L17.0906 14.4618Z" fill="#CD6116" stroke="#CD6116" stroke-width="0.0571157"/>
<path d="M3.31421 0.0571289L11.8073 7.91624L6.58122 5.16898L3.31421 0.0571289Z" fill="#763D16" stroke="#763D16" stroke-width="0.0571157"/>
<path d="M0.110107 18.34L7.27241 18.043L8.96303 21.6812L0.110107 18.34Z" fill="#E4761B" stroke="#E4761B" stroke-width="0.0571157"/>
<path d="M8.96284 21.6812L7.27222 18.0429L10.7905 17.8716L8.96284 21.6812Z" fill="#CD6116" stroke="#CD6116" stroke-width="0.0571157"/>
<path d="M16.7936 16.0952L18.627 17.2147L19.638 19.5964L16.7936 16.0952ZM7.92924 13.4336L0.110107 18.3399L2.54323 12.5198L7.92924 13.4336ZM7.27241 18.0429L0.110107 18.3399L7.92924 13.4336L7.27241 18.0429ZM16.1482 13.4679L16.6165 15.1699L14.3548 15.3013L16.1482 13.4679ZM14.3548 15.3013L13.6522 13.5536L16.1482 13.4679L14.3548 15.3013Z" fill="#F6851B" stroke="#F6851B" stroke-width="0.0571157"/>
<path d="M10.8877 22.4351L8.96289 21.6812L15.6568 22.8063L10.8877 22.4351Z" fill="#C0AD9E" stroke="#C0AD9E" stroke-width="0.0571157"/>
<path d="M2.54315 12.5198L1.44653 11.1148L1.86348 10.7092L2.54315 12.5198Z" fill="#763D16" stroke="#763D16" stroke-width="0.0571157"/>
<path d="M16.4165 21.9724L15.6568 22.8063L8.96289 21.6812L16.4165 21.9724Z" fill="#D7C1B3" stroke="#D7C1B3" stroke-width="0.0571157"/>
<path d="M16.7763 19.9277L8.96289 21.6812L10.7906 17.8716L16.7763 19.9277Z" fill="#E4761B" stroke="#E4761B" stroke-width="0.0571157"/>
<path d="M8.96289 21.6812L16.7763 19.9277L16.4165 21.9725L8.96289 21.6812Z" fill="#D7C1B3" stroke="#D7C1B3" stroke-width="0.0571157"/>
<path d="M1.31513 8.32188L1.05811 3.92969L6.58119 5.1691L1.31513 8.32188ZM1.86344 10.7093L1.1038 9.93825L1.61784 9.41279L1.86344 10.7093Z" fill="#763D16" stroke="#763D16" stroke-width="0.0571157"/>
<path d="M12.3728 14.6844L13.6522 13.5535L13.4694 16.3179L12.3728 14.6844Z" fill="#CD6116" stroke="#CD6116" stroke-width="0.0571157"/>
<path d="M13.6523 13.5535L12.373 14.6844L10.511 15.6496L13.6523 13.5535Z" fill="#CD6116" stroke="#CD6116" stroke-width="0.0571157"/>
<path d="M19.6378 19.5964L19.2894 19.3394L16.7935 16.0952L19.6378 19.5964Z" fill="#F6851B" stroke="#F6851B" stroke-width="0.0571157"/>
<path d="M10.5108 15.6497L7.9292 13.4336L13.6522 13.5535L10.5108 15.6497Z" fill="#CD6116" stroke="#CD6116" stroke-width="0.0571157"/>
<path d="M13.4692 16.3179L13.652 13.5535L14.3545 15.3012L13.4692 16.3179Z" fill="#E4751F" stroke="#E4751F" stroke-width="0.0571157"/>
<path d="M0.852539 8.75586L1.31518 8.32178L1.61789 9.41269L0.852539 8.75586Z" fill="#763D16" stroke="#763D16" stroke-width="0.0571157"/>
<path d="M13.4696 16.3181L10.511 15.6498L12.373 14.6846L13.4696 16.3181Z" fill="#233447" stroke="#233447" stroke-width="0.0571157"/>
<path d="M6.58119 5.16898L1.05811 3.92957L3.31417 0.0571289L6.58119 5.16898Z" fill="#763D16" stroke="#763D16" stroke-width="0.0571157"/>
<path d="M15.6569 22.8063L15.971 23.663L10.8877 22.4351L15.6569 22.8063Z" fill="#C0AD9E" stroke="#C0AD9E" stroke-width="0.0571157"/>
<path d="M10.7909 17.8715L10.511 15.6497L13.4696 16.3179L10.7909 17.8715Z" fill="#F6851B" stroke="#F6851B" stroke-width="0.0571157"/>
<path d="M7.9292 13.4336L10.5108 15.6497L10.7907 17.8715L7.9292 13.4336Z" fill="#E4751F" stroke="#E4751F" stroke-width="0.0571157"/>
<path d="M14.3546 15.3013L16.6163 15.1699L19.2894 19.3394L14.3546 15.3013ZM7.92905 13.4336L10.7905 17.8715L7.27222 18.0428L7.92905 13.4336Z" fill="#F6851B" stroke="#F6851B" stroke-width="0.0571157"/>
<path d="M14.3545 15.3013L17.1646 19.5792L13.4692 16.3179L14.3545 15.3013Z" fill="#E4751F" stroke="#E4751F" stroke-width="0.0571157"/>
<path d="M13.4692 16.3181L17.1646 19.5794L16.7762 19.9278L13.4692 16.3181Z" fill="#F6851B" stroke="#F6851B" stroke-width="0.0571157"/>
<path d="M16.7762 19.9276L10.7905 17.8715L13.4693 16.3179L16.7762 19.9276ZM19.2893 19.3393L17.1646 19.5792L14.3545 15.3013L19.2893 19.3393Z" fill="#F6851B" stroke="#F6851B" stroke-width="0.0571157"/>
<path d="M19.8493 21.3499L18.9354 23.1833L15.9711 23.663L19.8493 21.3499ZM15.9711 23.663L15.657 22.8063L16.4166 21.9724L15.9711 23.663Z" fill="#C0AD9E" stroke="#C0AD9E" stroke-width="0.0571157"/>
<path d="M16.4167 21.9724L16.9764 21.7497L15.9712 23.663L16.4167 21.9724ZM15.9712 23.663L16.9764 21.7497L19.8493 21.3499L15.9712 23.663Z" fill="#C0AD9E" stroke="#C0AD9E" stroke-width="0.0571157"/>
<path d="M19.2896 19.3394L19.9921 19.7677L17.856 20.0247L19.2896 19.3394Z" fill="#161616" stroke="#161616" stroke-width="0.0571157"/>
<path d="M17.8559 20.0247L17.1648 19.5792L19.2895 19.3394L17.8559 20.0247ZM17.6103 20.3617L20.2091 20.0476L19.8492 21.3498L17.6103 20.3617Z" fill="#161616" stroke="#161616" stroke-width="0.0571157"/>
<path d="M19.8492 21.3497L16.9762 21.7495L17.6102 20.3616L19.8492 21.3497ZM16.9762 21.7495L16.4165 21.9722L16.7763 19.9275L16.9762 21.7495ZM16.7763 19.9275L17.1647 19.5791L17.8558 20.0246L16.7763 19.9275ZM19.9919 19.7676L20.209 20.0475L17.6102 20.3616L19.9919 19.7676Z" fill="#161616" stroke="#161616" stroke-width="0.0571157"/>
<path d="M17.6103 20.3618L17.8559 20.0248L19.992 19.7678L17.6103 20.3618ZM16.7764 19.9277L17.6103 20.3618L16.9763 21.7497L16.7764 19.9277Z" fill="#161616" stroke="#161616" stroke-width="0.0571157"/>
<path d="M17.8559 20.0248L17.6103 20.3618L16.7764 19.9277L17.8559 20.0248Z" fill="#161616" stroke="#161616" stroke-width="0.0571157"/>
</g>
<defs>
<clipPath id="clip0">
<rect width="23.0784" height="24" fill="white"/>
</clipPath>
</defs>
</svg>
