<svg width="180" height="180" viewBox="0 0 180 180" fill="none" xmlns="http://www.w3.org/2000/svg">
<path d="M180 0H0V180H180V0Z" fill="white"/>
<path d="M9.23074 4.61548H4.61536V9.23086H9.23074V4.61548Z" fill="black"/>
<path d="M13.8461 4.61548H9.23071V9.23086H13.8461V4.61548Z" fill="black"/>
<path d="M18.4615 4.61548H13.8461V9.23086H18.4615V4.61548Z" fill="black"/>
<path d="M23.0769 4.61548H18.4615V9.23086H23.0769V4.61548Z" fill="black"/>
<path d="M27.6923 4.61548H23.0769V9.23086H27.6923V4.61548Z" fill="black"/>
<path d="M32.3076 4.61548H27.6923V9.23086H32.3076V4.61548Z" fill="black"/>
<path d="M36.9231 4.61548H32.3077V9.23086H36.9231V4.61548Z" fill="black"/>
<path d="M46.1538 4.61548H41.5385V9.23086H46.1538V4.61548Z" fill="black"/>
<path d="M50.7692 4.61548H46.1538V9.23086H50.7692V4.61548Z" fill="black"/>
<path d="M64.6154 4.61548H60V9.23086H64.6154V4.61548Z" fill="black"/>
<path d="M69.2307 4.61548H64.6154V9.23086H69.2307V4.61548Z" fill="black"/>
<path d="M73.8461 4.61548H69.2307V9.23086H73.8461V4.61548Z" fill="black"/>
<path d="M78.4615 4.61548H73.8461V9.23086H78.4615V4.61548Z" fill="black"/>
<path d="M83.0769 4.61548H78.4615V9.23086H83.0769V4.61548Z" fill="black"/>
<path d="M92.3076 4.61548H87.6923V9.23086H92.3076V4.61548Z" fill="black"/>
<path d="M96.9231 4.61548H92.3077V9.23086H96.9231V4.61548Z" fill="black"/>
<path d="M101.538 4.61548H96.923V9.23086H101.538V4.61548Z" fill="black"/>
<path d="M110.769 4.61548H106.154V9.23086H110.769V4.61548Z" fill="black"/>
<path d="M115.385 4.61548H110.769V9.23086H115.385V4.61548Z" fill="black"/>
<path d="M138.462 4.61548H133.846V9.23086H138.462V4.61548Z" fill="black"/>
<path d="M147.692 4.61548H143.077V9.23086H147.692V4.61548Z" fill="black"/>
<path d="M152.308 4.61548H147.692V9.23086H152.308V4.61548Z" fill="black"/>
<path d="M156.923 4.61548H152.308V9.23086H156.923V4.61548Z" fill="black"/>
<path d="M161.538 4.61548H156.923V9.23086H161.538V4.61548Z" fill="black"/>
<path d="M166.154 4.61548H161.538V9.23086H166.154V4.61548Z" fill="black"/>
<path d="M170.769 4.61548H166.154V9.23086H170.769V4.61548Z" fill="black"/>
<path d="M175.385 4.61548H170.769V9.23086H175.385V4.61548Z" fill="black"/>
<path d="M9.23074 9.23096H4.61536V13.8463H9.23074V9.23096Z" fill="black"/>
<path d="M36.9231 9.23096H32.3077V13.8463H36.9231V9.23096Z" fill="black"/>
<path d="M46.1538 9.23096H41.5385V13.8463H46.1538V9.23096Z" fill="black"/>
<path d="M55.3846 9.23096H50.7692V13.8463H55.3846V9.23096Z" fill="black"/>
<path d="M60 9.23096H55.3846V13.8463H60V9.23096Z" fill="black"/>
<path d="M69.2307 9.23096H64.6154V13.8463H69.2307V9.23096Z" fill="black"/>
<path d="M73.8461 9.23096H69.2307V13.8463H73.8461V9.23096Z" fill="black"/>
<path d="M78.4615 9.23096H73.8461V13.8463H78.4615V9.23096Z" fill="black"/>
<path d="M83.0769 9.23096H78.4615V13.8463H83.0769V9.23096Z" fill="black"/>
<path d="M92.3076 9.23096H87.6923V13.8463H92.3076V9.23096Z" fill="black"/>
<path d="M96.9231 9.23096H92.3077V13.8463H96.9231V9.23096Z" fill="black"/>
<path d="M110.769 9.23096H106.154V13.8463H110.769V9.23096Z" fill="black"/>
<path d="M124.615 9.23096H120V13.8463H124.615V9.23096Z" fill="black"/>
<path d="M133.846 9.23096H129.231V13.8463H133.846V9.23096Z" fill="black"/>
<path d="M147.692 9.23096H143.077V13.8463H147.692V9.23096Z" fill="black"/>
<path d="M175.385 9.23096H170.769V13.8463H175.385V9.23096Z" fill="black"/>
<path d="M9.23074 13.8462H4.61536V18.4616H9.23074V13.8462Z" fill="black"/>
<path d="M18.4615 13.8462H13.8461V18.4616H18.4615V13.8462Z" fill="black"/>
<path d="M23.0769 13.8462H18.4615V18.4616H23.0769V13.8462Z" fill="black"/>
<path d="M27.6923 13.8462H23.0769V18.4616H27.6923V13.8462Z" fill="black"/>
<path d="M36.9231 13.8462H32.3077V18.4616H36.9231V13.8462Z" fill="black"/>
<path d="M46.1538 13.8462H41.5385V18.4616H46.1538V13.8462Z" fill="black"/>
<path d="M50.7692 13.8462H46.1538V18.4616H50.7692V13.8462Z" fill="black"/>
<path d="M60 13.8462H55.3846V18.4616H60V13.8462Z" fill="black"/>
<path d="M64.6154 13.8462H60V18.4616H64.6154V13.8462Z" fill="black"/>
<path d="M73.8461 13.8462H69.2307V18.4616H73.8461V13.8462Z" fill="black"/>
<path d="M78.4615 13.8462H73.8461V18.4616H78.4615V13.8462Z" fill="black"/>
<path d="M87.6923 13.8462H83.0769V18.4616H87.6923V13.8462Z" fill="black"/>
<path d="M92.3076 13.8462H87.6923V18.4616H92.3076V13.8462Z" fill="black"/>
<path d="M101.538 13.8462H96.923V18.4616H101.538V13.8462Z" fill="black"/>
<path d="M106.154 13.8462H101.538V18.4616H106.154V13.8462Z" fill="black"/>
<path d="M133.846 13.8462H129.231V18.4616H133.846V13.8462Z" fill="black"/>
<path d="M138.462 13.8462H133.846V18.4616H138.462V13.8462Z" fill="black"/>
<path d="M147.692 13.8462H143.077V18.4616H147.692V13.8462Z" fill="black"/>
<path d="M156.923 13.8462H152.308V18.4616H156.923V13.8462Z" fill="black"/>
<path d="M161.538 13.8462H156.923V18.4616H161.538V13.8462Z" fill="black"/>
<path d="M166.154 13.8462H161.538V18.4616H166.154V13.8462Z" fill="black"/>
<path d="M175.385 13.8462H170.769V18.4616H175.385V13.8462Z" fill="black"/>
<path d="M9.23074 18.4617H4.61536V23.0771H9.23074V18.4617Z" fill="black"/>
<path d="M18.4615 18.4617H13.8461V23.0771H18.4615V18.4617Z" fill="black"/>
<path d="M23.0769 18.4617H18.4615V23.0771H23.0769V18.4617Z" fill="black"/>
<path d="M27.6923 18.4617H23.0769V23.0771H27.6923V18.4617Z" fill="black"/>
<path d="M36.9231 18.4617H32.3077V23.0771H36.9231V18.4617Z" fill="black"/>
<path d="M55.3846 18.4617H50.7692V23.0771H55.3846V18.4617Z" fill="black"/>
<path d="M83.0769 18.4617H78.4615V23.0771H83.0769V18.4617Z" fill="black"/>
<path d="M92.3076 18.4617H87.6923V23.0771H92.3076V18.4617Z" fill="black"/>
<path d="M101.538 18.4617H96.923V23.0771H101.538V18.4617Z" fill="black"/>
<path d="M106.154 18.4617H101.538V23.0771H106.154V18.4617Z" fill="black"/>
<path d="M110.769 18.4617H106.154V23.0771H110.769V18.4617Z" fill="black"/>
<path d="M115.385 18.4617H110.769V23.0771H115.385V18.4617Z" fill="black"/>
<path d="M124.615 18.4617H120V23.0771H124.615V18.4617Z" fill="black"/>
<path d="M129.231 18.4617H124.615V23.0771H129.231V18.4617Z" fill="black"/>
<path d="M147.692 18.4617H143.077V23.0771H147.692V18.4617Z" fill="black"/>
<path d="M156.923 18.4617H152.308V23.0771H156.923V18.4617Z" fill="black"/>
<path d="M161.538 18.4617H156.923V23.0771H161.538V18.4617Z" fill="black"/>
<path d="M166.154 18.4617H161.538V23.0771H166.154V18.4617Z" fill="black"/>
<path d="M175.385 18.4617H170.769V23.0771H175.385V18.4617Z" fill="black"/>
<path d="M9.23074 23.0769H4.61536V27.6923H9.23074V23.0769Z" fill="black"/>
<path d="M18.4615 23.0769H13.8461V27.6923H18.4615V23.0769Z" fill="black"/>
<path d="M23.0769 23.0769H18.4615V27.6923H23.0769V23.0769Z" fill="black"/>
<path d="M27.6923 23.0769H23.0769V27.6923H27.6923V23.0769Z" fill="black"/>
<path d="M36.9231 23.0769H32.3077V27.6923H36.9231V23.0769Z" fill="black"/>
<path d="M50.7692 23.0769H46.1538V27.6923H50.7692V23.0769Z" fill="black"/>
<path d="M55.3846 23.0769H50.7692V27.6923H55.3846V23.0769Z" fill="black"/>
<path d="M60 23.0769H55.3846V27.6923H60V23.0769Z" fill="black"/>
<path d="M64.6154 23.0769H60V27.6923H64.6154V23.0769Z" fill="black"/>
<path d="M69.2307 23.0769H64.6154V27.6923H69.2307V23.0769Z" fill="black"/>
<path d="M87.6923 23.0769H83.0769V27.6923H87.6923V23.0769Z" fill="black"/>
<path d="M92.3076 23.0769H87.6923V27.6923H92.3076V23.0769Z" fill="black"/>
<path d="M96.9231 23.0769H92.3077V27.6923H96.9231V23.0769Z" fill="black"/>
<path d="M110.769 23.0769H106.154V27.6923H110.769V23.0769Z" fill="black"/>
<path d="M115.385 23.0769H110.769V27.6923H115.385V23.0769Z" fill="black"/>
<path d="M124.615 23.0769H120V27.6923H124.615V23.0769Z" fill="black"/>
<path d="M129.231 23.0769H124.615V27.6923H129.231V23.0769Z" fill="black"/>
<path d="M147.692 23.0769H143.077V27.6923H147.692V23.0769Z" fill="black"/>
<path d="M156.923 23.0769H152.308V27.6923H156.923V23.0769Z" fill="black"/>
<path d="M161.538 23.0769H156.923V27.6923H161.538V23.0769Z" fill="black"/>
<path d="M166.154 23.0769H161.538V27.6923H166.154V23.0769Z" fill="black"/>
<path d="M175.385 23.0769H170.769V27.6923H175.385V23.0769Z" fill="black"/>
<path d="M9.23074 27.6924H4.61536V32.3078H9.23074V27.6924Z" fill="black"/>
<path d="M36.9231 27.6924H32.3077V32.3078H36.9231V27.6924Z" fill="black"/>
<path d="M46.1538 27.6924H41.5385V32.3078H46.1538V27.6924Z" fill="black"/>
<path d="M50.7692 27.6924H46.1538V32.3078H50.7692V27.6924Z" fill="black"/>
<path d="M55.3846 27.6924H50.7692V32.3078H55.3846V27.6924Z" fill="black"/>
<path d="M60 27.6924H55.3846V32.3078H60V27.6924Z" fill="black"/>
<path d="M64.6154 27.6924H60V32.3078H64.6154V27.6924Z" fill="black"/>
<path d="M69.2307 27.6924H64.6154V32.3078H69.2307V27.6924Z" fill="black"/>
<path d="M83.0769 27.6924H78.4615V32.3078H83.0769V27.6924Z" fill="black"/>
<path d="M101.538 27.6924H96.923V32.3078H101.538V27.6924Z" fill="black"/>
<path d="M110.769 27.6924H106.154V32.3078H110.769V27.6924Z" fill="black"/>
<path d="M120 27.6924H115.385V32.3078H120V27.6924Z" fill="black"/>
<path d="M124.615 27.6924H120V32.3078H124.615V27.6924Z" fill="black"/>
<path d="M129.231 27.6924H124.615V32.3078H129.231V27.6924Z" fill="black"/>
<path d="M133.846 27.6924H129.231V32.3078H133.846V27.6924Z" fill="black"/>
<path d="M138.462 27.6924H133.846V32.3078H138.462V27.6924Z" fill="black"/>
<path d="M147.692 27.6924H143.077V32.3078H147.692V27.6924Z" fill="black"/>
<path d="M175.385 27.6924H170.769V32.3078H175.385V27.6924Z" fill="black"/>
<path d="M9.23074 32.3079H4.61536V36.9232H9.23074V32.3079Z" fill="black"/>
<path d="M13.8461 32.3079H9.23071V36.9232H13.8461V32.3079Z" fill="black"/>
<path d="M18.4615 32.3079H13.8461V36.9232H18.4615V32.3079Z" fill="black"/>
<path d="M23.0769 32.3079H18.4615V36.9232H23.0769V32.3079Z" fill="black"/>
<path d="M27.6923 32.3079H23.0769V36.9232H27.6923V32.3079Z" fill="black"/>
<path d="M32.3076 32.3079H27.6923V36.9232H32.3076V32.3079Z" fill="black"/>
<path d="M36.9231 32.3079H32.3077V36.9232H36.9231V32.3079Z" fill="black"/>
<path d="M46.1538 32.3079H41.5385V36.9232H46.1538V32.3079Z" fill="black"/>
<path d="M55.3846 32.3079H50.7692V36.9232H55.3846V32.3079Z" fill="black"/>
<path d="M64.6154 32.3079H60V36.9232H64.6154V32.3079Z" fill="black"/>
<path d="M73.8461 32.3079H69.2307V36.9232H73.8461V32.3079Z" fill="black"/>
<path d="M83.0769 32.3079H78.4615V36.9232H83.0769V32.3079Z" fill="black"/>
<path d="M92.3076 32.3079H87.6923V36.9232H92.3076V32.3079Z" fill="black"/>
<path d="M101.538 32.3079H96.923V36.9232H101.538V32.3079Z" fill="black"/>
<path d="M110.769 32.3079H106.154V36.9232H110.769V32.3079Z" fill="black"/>
<path d="M120 32.3079H115.385V36.9232H120V32.3079Z" fill="black"/>
<path d="M129.231 32.3079H124.615V36.9232H129.231V32.3079Z" fill="black"/>
<path d="M138.462 32.3079H133.846V36.9232H138.462V32.3079Z" fill="black"/>
<path d="M147.692 32.3079H143.077V36.9232H147.692V32.3079Z" fill="black"/>
<path d="M152.308 32.3079H147.692V36.9232H152.308V32.3079Z" fill="black"/>
<path d="M156.923 32.3079H152.308V36.9232H156.923V32.3079Z" fill="black"/>
<path d="M161.538 32.3079H156.923V36.9232H161.538V32.3079Z" fill="black"/>
<path d="M166.154 32.3079H161.538V36.9232H166.154V32.3079Z" fill="black"/>
<path d="M170.769 32.3079H166.154V36.9232H170.769V32.3079Z" fill="black"/>
<path d="M175.385 32.3079H170.769V36.9232H175.385V32.3079Z" fill="black"/>
<path d="M46.1538 36.9231H41.5385V41.5385H46.1538V36.9231Z" fill="black"/>
<path d="M50.7692 36.9231H46.1538V41.5385H50.7692V36.9231Z" fill="black"/>
<path d="M55.3846 36.9231H50.7692V41.5385H55.3846V36.9231Z" fill="black"/>
<path d="M64.6154 36.9231H60V41.5385H64.6154V36.9231Z" fill="black"/>
<path d="M69.2307 36.9231H64.6154V41.5385H69.2307V36.9231Z" fill="black"/>
<path d="M73.8461 36.9231H69.2307V41.5385H73.8461V36.9231Z" fill="black"/>
<path d="M87.6923 36.9231H83.0769V41.5385H87.6923V36.9231Z" fill="black"/>
<path d="M92.3076 36.9231H87.6923V41.5385H92.3076V36.9231Z" fill="black"/>
<path d="M96.9231 36.9231H92.3077V41.5385H96.9231V36.9231Z" fill="black"/>
<path d="M106.154 36.9231H101.538V41.5385H106.154V36.9231Z" fill="black"/>
<path d="M110.769 36.9231H106.154V41.5385H110.769V36.9231Z" fill="black"/>
<path d="M138.462 36.9231H133.846V41.5385H138.462V36.9231Z" fill="black"/>
<path d="M18.4615 41.5386H13.8461V46.154H18.4615V41.5386Z" fill="black"/>
<path d="M23.0769 41.5386H18.4615V46.154H23.0769V41.5386Z" fill="black"/>
<path d="M27.6923 41.5386H23.0769V46.154H27.6923V41.5386Z" fill="black"/>
<path d="M36.9231 41.5386H32.3077V46.154H36.9231V41.5386Z" fill="black"/>
<path d="M46.1538 41.5386H41.5385V46.154H46.1538V41.5386Z" fill="black"/>
<path d="M50.7692 41.5386H46.1538V46.154H50.7692V41.5386Z" fill="black"/>
<path d="M55.3846 41.5386H50.7692V46.154H55.3846V41.5386Z" fill="black"/>
<path d="M60 41.5386H55.3846V46.154H60V41.5386Z" fill="black"/>
<path d="M69.2307 41.5386H64.6154V46.154H69.2307V41.5386Z" fill="black"/>
<path d="M73.8461 41.5386H69.2307V46.154H73.8461V41.5386Z" fill="black"/>
<path d="M78.4615 41.5386H73.8461V46.154H78.4615V41.5386Z" fill="black"/>
<path d="M83.0769 41.5386H78.4615V46.154H83.0769V41.5386Z" fill="black"/>
<path d="M92.3076 41.5386H87.6923V46.154H92.3076V41.5386Z" fill="black"/>
<path d="M106.154 41.5386H101.538V46.154H106.154V41.5386Z" fill="black"/>
<path d="M110.769 41.5386H106.154V46.154H110.769V41.5386Z" fill="black"/>
<path d="M120 41.5386H115.385V46.154H120V41.5386Z" fill="black"/>
<path d="M124.615 41.5386H120V46.154H124.615V41.5386Z" fill="black"/>
<path d="M129.231 41.5386H124.615V46.154H129.231V41.5386Z" fill="black"/>
<path d="M143.077 41.5386H138.462V46.154H143.077V41.5386Z" fill="black"/>
<path d="M147.692 41.5386H143.077V46.154H147.692V41.5386Z" fill="black"/>
<path d="M152.308 41.5386H147.692V46.154H152.308V41.5386Z" fill="black"/>
<path d="M166.154 41.5386H161.538V46.154H166.154V41.5386Z" fill="black"/>
<path d="M170.769 41.5386H166.154V46.154H170.769V41.5386Z" fill="black"/>
<path d="M175.385 41.5386H170.769V46.154H175.385V41.5386Z" fill="black"/>
<path d="M13.8461 46.1541H9.23071V50.7694H13.8461V46.1541Z" fill="black"/>
<path d="M23.0769 46.1541H18.4615V50.7694H23.0769V46.1541Z" fill="black"/>
<path d="M27.6923 46.1541H23.0769V50.7694H27.6923V46.1541Z" fill="black"/>
<path d="M32.3076 46.1541H27.6923V50.7694H32.3076V46.1541Z" fill="black"/>
<path d="M60 46.1541H55.3846V50.7694H60V46.1541Z" fill="black"/>
<path d="M78.4615 46.1541H73.8461V50.7694H78.4615V46.1541Z" fill="black"/>
<path d="M87.6923 46.1541H83.0769V50.7694H87.6923V46.1541Z" fill="black"/>
<path d="M96.9231 46.1541H92.3077V50.7694H96.9231V46.1541Z" fill="black"/>
<path d="M101.538 46.1541H96.923V50.7694H101.538V46.1541Z" fill="black"/>
<path d="M106.154 46.1541H101.538V50.7694H106.154V46.1541Z" fill="black"/>
<path d="M110.769 46.1541H106.154V50.7694H110.769V46.1541Z" fill="black"/>
<path d="M115.385 46.1541H110.769V50.7694H115.385V46.1541Z" fill="black"/>
<path d="M120 46.1541H115.385V50.7694H120V46.1541Z" fill="black"/>
<path d="M124.615 46.1541H120V50.7694H124.615V46.1541Z" fill="black"/>
<path d="M129.231 46.1541H124.615V50.7694H129.231V46.1541Z" fill="black"/>
<path d="M138.462 46.1541H133.846V50.7694H138.462V46.1541Z" fill="black"/>
<path d="M152.308 46.1541H147.692V50.7694H152.308V46.1541Z" fill="black"/>
<path d="M9.23074 50.7693H4.61536V55.3847H9.23074V50.7693Z" fill="black"/>
<path d="M18.4615 50.7693H13.8461V55.3847H18.4615V50.7693Z" fill="black"/>
<path d="M36.9231 50.7693H32.3077V55.3847H36.9231V50.7693Z" fill="black"/>
<path d="M41.5384 50.7693H36.923V55.3847H41.5384V50.7693Z" fill="black"/>
<path d="M69.2307 50.7693H64.6154V55.3847H69.2307V50.7693Z" fill="black"/>
<path d="M83.0769 50.7693H78.4615V55.3847H83.0769V50.7693Z" fill="black"/>
<path d="M92.3076 50.7693H87.6923V55.3847H92.3076V50.7693Z" fill="black"/>
<path d="M115.385 50.7693H110.769V55.3847H115.385V50.7693Z" fill="black"/>
<path d="M124.615 50.7693H120V55.3847H124.615V50.7693Z" fill="black"/>
<path d="M129.231 50.7693H124.615V55.3847H129.231V50.7693Z" fill="black"/>
<path d="M133.846 50.7693H129.231V55.3847H133.846V50.7693Z" fill="black"/>
<path d="M138.462 50.7693H133.846V55.3847H138.462V50.7693Z" fill="black"/>
<path d="M147.692 50.7693H143.077V55.3847H147.692V50.7693Z" fill="black"/>
<path d="M152.308 50.7693H147.692V55.3847H152.308V50.7693Z" fill="black"/>
<path d="M161.538 50.7693H156.923V55.3847H161.538V50.7693Z" fill="black"/>
<path d="M170.769 50.7693H166.154V55.3847H170.769V50.7693Z" fill="black"/>
<path d="M175.385 50.7693H170.769V55.3847H175.385V50.7693Z" fill="black"/>
<path d="M9.23074 55.3848H4.61536V60.0001H9.23074V55.3848Z" fill="black"/>
<path d="M13.8461 55.3848H9.23071V60.0001H13.8461V55.3848Z" fill="black"/>
<path d="M18.4615 55.3848H13.8461V60.0001H18.4615V55.3848Z" fill="black"/>
<path d="M23.0769 55.3848H18.4615V60.0001H23.0769V55.3848Z" fill="black"/>
<path d="M32.3076 55.3848H27.6923V60.0001H32.3076V55.3848Z" fill="black"/>
<path d="M41.5384 55.3848H36.923V60.0001H41.5384V55.3848Z" fill="black"/>
<path d="M55.3846 55.3848H50.7692V60.0001H55.3846V55.3848Z" fill="black"/>
<path d="M60 55.3848H55.3846V60.0001H60V55.3848Z" fill="black"/>
<path d="M64.6154 55.3848H60V60.0001H64.6154V55.3848Z" fill="black"/>
<path d="M69.2307 55.3848H64.6154V60.0001H69.2307V55.3848Z" fill="black"/>
<path d="M83.0769 55.3848H78.4615V60.0001H83.0769V55.3848Z" fill="black"/>
<path d="M87.6923 55.3848H83.0769V60.0001H87.6923V55.3848Z" fill="black"/>
<path d="M120 55.3848H115.385V60.0001H120V55.3848Z" fill="black"/>
<path d="M129.231 55.3848H124.615V60.0001H129.231V55.3848Z" fill="black"/>
<path d="M138.462 55.3848H133.846V60.0001H138.462V55.3848Z" fill="black"/>
<path d="M147.692 55.3848H143.077V60.0001H147.692V55.3848Z" fill="black"/>
<path d="M152.308 55.3848H147.692V60.0001H152.308V55.3848Z" fill="black"/>
<path d="M170.769 55.3848H166.154V60.0001H170.769V55.3848Z" fill="black"/>
<path d="M175.385 55.3848H170.769V60.0001H175.385V55.3848Z" fill="black"/>
<path d="M13.8461 60H9.23071V64.6154H13.8461V60Z" fill="black"/>
<path d="M32.3076 60H27.6923V64.6154H32.3076V60Z" fill="black"/>
<path d="M36.9231 60H32.3077V64.6154H36.9231V60Z" fill="black"/>
<path d="M46.1538 60H41.5385V64.6154H46.1538V60Z" fill="black"/>
<path d="M50.7692 60H46.1538V64.6154H50.7692V60Z" fill="black"/>
<path d="M64.6154 60H60V64.6154H64.6154V60Z" fill="black"/>
<path d="M78.4615 60H73.8461V64.6154H78.4615V60Z" fill="black"/>
<path d="M87.6923 60H83.0769V64.6154H87.6923V60Z" fill="black"/>
<path d="M96.9231 60H92.3077V64.6154H96.9231V60Z" fill="black"/>
<path d="M101.538 60H96.923V64.6154H101.538V60Z" fill="black"/>
<path d="M115.385 60H110.769V64.6154H115.385V60Z" fill="black"/>
<path d="M120 60H115.385V64.6154H120V60Z" fill="black"/>
<path d="M124.615 60H120V64.6154H124.615V60Z" fill="black"/>
<path d="M129.231 60H124.615V64.6154H129.231V60Z" fill="black"/>
<path d="M138.462 60H133.846V64.6154H138.462V60Z" fill="black"/>
<path d="M143.077 60H138.462V64.6154H143.077V60Z" fill="black"/>
<path d="M147.692 60H143.077V64.6154H147.692V60Z" fill="black"/>
<path d="M156.923 60H152.308V64.6154H156.923V60Z" fill="black"/>
<path d="M161.538 60H156.923V64.6154H161.538V60Z" fill="black"/>
<path d="M166.154 60H161.538V64.6154H166.154V60Z" fill="black"/>
<path d="M9.23074 64.6155H4.61536V69.2309H9.23074V64.6155Z" fill="black"/>
<path d="M13.8461 64.6155H9.23071V69.2309H13.8461V64.6155Z" fill="black"/>
<path d="M18.4615 64.6155H13.8461V69.2309H18.4615V64.6155Z" fill="black"/>
<path d="M27.6923 64.6155H23.0769V69.2309H27.6923V64.6155Z" fill="black"/>
<path d="M32.3076 64.6155H27.6923V69.2309H32.3076V64.6155Z" fill="black"/>
<path d="M41.5384 64.6155H36.923V69.2309H41.5384V64.6155Z" fill="black"/>
<path d="M60 64.6155H55.3846V69.2309H60V64.6155Z" fill="black"/>
<path d="M69.2307 64.6155H64.6154V69.2309H69.2307V64.6155Z" fill="black"/>
<path d="M78.4615 64.6155H73.8461V69.2309H78.4615V64.6155Z" fill="black"/>
<path d="M83.0769 64.6155H78.4615V69.2309H83.0769V64.6155Z" fill="black"/>
<path d="M87.6923 64.6155H83.0769V69.2309H87.6923V64.6155Z" fill="black"/>
<path d="M96.9231 64.6155H92.3077V69.2309H96.9231V64.6155Z" fill="black"/>
<path d="M101.538 64.6155H96.923V69.2309H101.538V64.6155Z" fill="black"/>
<path d="M106.154 64.6155H101.538V69.2309H106.154V64.6155Z" fill="black"/>
<path d="M120 64.6155H115.385V69.2309H120V64.6155Z" fill="black"/>
<path d="M124.615 64.6155H120V69.2309H124.615V64.6155Z" fill="black"/>
<path d="M138.462 64.6155H133.846V69.2309H138.462V64.6155Z" fill="black"/>
<path d="M143.077 64.6155H138.462V69.2309H143.077V64.6155Z" fill="black"/>
<path d="M152.308 64.6155H147.692V69.2309H152.308V64.6155Z" fill="black"/>
<path d="M161.538 64.6155H156.923V69.2309H161.538V64.6155Z" fill="black"/>
<path d="M166.154 64.6155H161.538V69.2309H166.154V64.6155Z" fill="black"/>
<path d="M9.23074 69.231H4.61536V73.8463H9.23074V69.231Z" fill="black"/>
<path d="M13.8461 69.231H9.23071V73.8463H13.8461V69.231Z" fill="black"/>
<path d="M32.3076 69.231H27.6923V73.8463H32.3076V69.231Z" fill="black"/>
<path d="M36.9231 69.231H32.3077V73.8463H36.9231V69.231Z" fill="black"/>
<path d="M46.1538 69.231H41.5385V73.8463H46.1538V69.231Z" fill="black"/>
<path d="M50.7692 69.231H46.1538V73.8463H50.7692V69.231Z" fill="black"/>
<path d="M55.3846 69.231H50.7692V73.8463H55.3846V69.231Z" fill="black"/>
<path d="M69.2307 69.231H64.6154V73.8463H69.2307V69.231Z" fill="black"/>
<path d="M83.0769 69.231H78.4615V73.8463H83.0769V69.231Z" fill="black"/>
<path d="M87.6923 69.231H83.0769V73.8463H87.6923V69.231Z" fill="black"/>
<path d="M92.3076 69.231H87.6923V73.8463H92.3076V69.231Z" fill="black"/>
<path d="M110.769 69.231H106.154V73.8463H110.769V69.231Z" fill="black"/>
<path d="M120 69.231H115.385V73.8463H120V69.231Z" fill="black"/>
<path d="M124.615 69.231H120V73.8463H124.615V69.231Z" fill="black"/>
<path d="M129.231 69.231H124.615V73.8463H129.231V69.231Z" fill="black"/>
<path d="M133.846 69.231H129.231V73.8463H133.846V69.231Z" fill="black"/>
<path d="M138.462 69.231H133.846V73.8463H138.462V69.231Z" fill="black"/>
<path d="M156.923 69.231H152.308V73.8463H156.923V69.231Z" fill="black"/>
<path d="M161.538 69.231H156.923V73.8463H161.538V69.231Z" fill="black"/>
<path d="M175.385 69.231H170.769V73.8463H175.385V69.231Z" fill="black"/>
<path d="M13.8461 73.8462H9.23071V78.4616H13.8461V73.8462Z" fill="black"/>
<path d="M23.0769 73.8462H18.4615V78.4616H23.0769V73.8462Z" fill="black"/>
<path d="M27.6923 73.8462H23.0769V78.4616H27.6923V73.8462Z" fill="black"/>
<path d="M32.3076 73.8462H27.6923V78.4616H32.3076V73.8462Z" fill="black"/>
<path d="M41.5384 73.8462H36.923V78.4616H41.5384V73.8462Z" fill="black"/>
<path d="M55.3846 73.8462H50.7692V78.4616H55.3846V73.8462Z" fill="black"/>
<path d="M69.2307 73.8462H64.6154V78.4616H69.2307V73.8462Z" fill="black"/>
<path d="M73.8461 73.8462H69.2307V78.4616H73.8461V73.8462Z" fill="black"/>
<path d="M78.4615 73.8462H73.8461V78.4616H78.4615V73.8462Z" fill="black"/>
<path d="M92.3076 73.8462H87.6923V78.4616H92.3076V73.8462Z" fill="black"/>
<path d="M101.538 73.8462H96.923V78.4616H101.538V73.8462Z" fill="black"/>
<path d="M115.385 73.8462H110.769V78.4616H115.385V73.8462Z" fill="black"/>
<path d="M129.231 73.8462H124.615V78.4616H129.231V73.8462Z" fill="black"/>
<path d="M133.846 73.8462H129.231V78.4616H133.846V73.8462Z" fill="black"/>
<path d="M138.462 73.8462H133.846V78.4616H138.462V73.8462Z" fill="black"/>
<path d="M143.077 73.8462H138.462V78.4616H143.077V73.8462Z" fill="black"/>
<path d="M170.769 73.8462H166.154V78.4616H170.769V73.8462Z" fill="black"/>
<path d="M9.23074 78.4617H4.61536V83.0771H9.23074V78.4617Z" fill="black"/>
<path d="M13.8461 78.4617H9.23071V83.0771H13.8461V78.4617Z" fill="black"/>
<path d="M18.4615 78.4617H13.8461V83.0771H18.4615V78.4617Z" fill="black"/>
<path d="M27.6923 78.4617H23.0769V83.0771H27.6923V78.4617Z" fill="black"/>
<path d="M32.3076 78.4617H27.6923V83.0771H32.3076V78.4617Z" fill="black"/>
<path d="M36.9231 78.4617H32.3077V83.0771H36.9231V78.4617Z" fill="black"/>
<path d="M41.5384 78.4617H36.923V83.0771H41.5384V78.4617Z" fill="black"/>
<path d="M46.1538 78.4617H41.5385V83.0771H46.1538V78.4617Z" fill="black"/>
<path d="M50.7692 78.4617H46.1538V83.0771H50.7692V78.4617Z" fill="black"/>
<path d="M69.2307 78.4617H64.6154V83.0771H69.2307V78.4617Z" fill="black"/>
<path d="M73.8461 78.4617H69.2307V83.0771H73.8461V78.4617Z" fill="black"/>
<path d="M87.6923 78.4617H83.0769V83.0771H87.6923V78.4617Z" fill="black"/>
<path d="M92.3076 78.4617H87.6923V83.0771H92.3076V78.4617Z" fill="black"/>
<path d="M96.9231 78.4617H92.3077V83.0771H96.9231V78.4617Z" fill="black"/>
<path d="M106.154 78.4617H101.538V83.0771H106.154V78.4617Z" fill="black"/>
<path d="M120 78.4617H115.385V83.0771H120V78.4617Z" fill="black"/>
<path d="M124.615 78.4617H120V83.0771H124.615V78.4617Z" fill="black"/>
<path d="M129.231 78.4617H124.615V83.0771H129.231V78.4617Z" fill="black"/>
<path d="M133.846 78.4617H129.231V83.0771H133.846V78.4617Z" fill="black"/>
<path d="M143.077 78.4617H138.462V83.0771H143.077V78.4617Z" fill="black"/>
<path d="M147.692 78.4617H143.077V83.0771H147.692V78.4617Z" fill="black"/>
<path d="M156.923 78.4617H152.308V83.0771H156.923V78.4617Z" fill="black"/>
<path d="M166.154 78.4617H161.538V83.0771H166.154V78.4617Z" fill="black"/>
<path d="M170.769 78.4617H166.154V83.0771H170.769V78.4617Z" fill="black"/>
<path d="M13.8461 83.0769H9.23071V87.6923H13.8461V83.0769Z" fill="black"/>
<path d="M27.6923 83.0769H23.0769V87.6923H27.6923V83.0769Z" fill="black"/>
<path d="M32.3076 83.0769H27.6923V87.6923H32.3076V83.0769Z" fill="black"/>
<path d="M41.5384 83.0769H36.923V87.6923H41.5384V83.0769Z" fill="black"/>
<path d="M69.2307 83.0769H64.6154V87.6923H69.2307V83.0769Z" fill="black"/>
<path d="M73.8461 83.0769H69.2307V87.6923H73.8461V83.0769Z" fill="black"/>
<path d="M78.4615 83.0769H73.8461V87.6923H78.4615V83.0769Z" fill="black"/>
<path d="M83.0769 83.0769H78.4615V87.6923H83.0769V83.0769Z" fill="black"/>
<path d="M92.3076 83.0769H87.6923V87.6923H92.3076V83.0769Z" fill="black"/>
<path d="M101.538 83.0769H96.923V87.6923H101.538V83.0769Z" fill="black"/>
<path d="M110.769 83.0769H106.154V87.6923H110.769V83.0769Z" fill="black"/>
<path d="M120 83.0769H115.385V87.6923H120V83.0769Z" fill="black"/>
<path d="M138.462 83.0769H133.846V87.6923H138.462V83.0769Z" fill="black"/>
<path d="M152.308 83.0769H147.692V87.6923H152.308V83.0769Z" fill="black"/>
<path d="M166.154 83.0769H161.538V87.6923H166.154V83.0769Z" fill="black"/>
<path d="M13.8461 87.6924H9.23071V92.3078H13.8461V87.6924Z" fill="black"/>
<path d="M18.4615 87.6924H13.8461V92.3078H18.4615V87.6924Z" fill="black"/>
<path d="M23.0769 87.6924H18.4615V92.3078H23.0769V87.6924Z" fill="black"/>
<path d="M36.9231 87.6924H32.3077V92.3078H36.9231V87.6924Z" fill="black"/>
<path d="M41.5384 87.6924H36.923V92.3078H41.5384V87.6924Z" fill="black"/>
<path d="M46.1538 87.6924H41.5385V92.3078H46.1538V87.6924Z" fill="black"/>
<path d="M50.7692 87.6924H46.1538V92.3078H50.7692V87.6924Z" fill="black"/>
<path d="M55.3846 87.6924H50.7692V92.3078H55.3846V87.6924Z" fill="black"/>
<path d="M64.6154 87.6924H60V92.3078H64.6154V87.6924Z" fill="black"/>
<path d="M92.3076 87.6924H87.6923V92.3078H92.3076V87.6924Z" fill="black"/>
<path d="M96.9231 87.6924H92.3077V92.3078H96.9231V87.6924Z" fill="black"/>
<path d="M124.615 87.6924H120V92.3078H124.615V87.6924Z" fill="black"/>
<path d="M133.846 87.6924H129.231V92.3078H133.846V87.6924Z" fill="black"/>
<path d="M143.077 87.6924H138.462V92.3078H143.077V87.6924Z" fill="black"/>
<path d="M147.692 87.6924H143.077V92.3078H147.692V87.6924Z" fill="black"/>
<path d="M152.308 87.6924H147.692V92.3078H152.308V87.6924Z" fill="black"/>
<path d="M156.923 87.6924H152.308V92.3078H156.923V87.6924Z" fill="black"/>
<path d="M161.538 87.6924H156.923V92.3078H161.538V87.6924Z" fill="black"/>
<path d="M166.154 87.6924H161.538V92.3078H166.154V87.6924Z" fill="black"/>
<path d="M170.769 87.6924H166.154V92.3078H170.769V87.6924Z" fill="black"/>
<path d="M175.385 87.6924H170.769V92.3078H175.385V87.6924Z" fill="black"/>
<path d="M18.4615 92.3079H13.8461V96.9232H18.4615V92.3079Z" fill="black"/>
<path d="M27.6923 92.3079H23.0769V96.9232H27.6923V92.3079Z" fill="black"/>
<path d="M41.5384 92.3079H36.923V96.9232H41.5384V92.3079Z" fill="black"/>
<path d="M60 92.3079H55.3846V96.9232H60V92.3079Z" fill="black"/>
<path d="M69.2307 92.3079H64.6154V96.9232H69.2307V92.3079Z" fill="black"/>
<path d="M78.4615 92.3079H73.8461V96.9232H78.4615V92.3079Z" fill="black"/>
<path d="M87.6923 92.3079H83.0769V96.9232H87.6923V92.3079Z" fill="black"/>
<path d="M92.3076 92.3079H87.6923V96.9232H92.3076V92.3079Z" fill="black"/>
<path d="M106.154 92.3079H101.538V96.9232H106.154V92.3079Z" fill="black"/>
<path d="M110.769 92.3079H106.154V96.9232H110.769V92.3079Z" fill="black"/>
<path d="M120 92.3079H115.385V96.9232H120V92.3079Z" fill="black"/>
<path d="M138.462 92.3079H133.846V96.9232H138.462V92.3079Z" fill="black"/>
<path d="M143.077 92.3079H138.462V96.9232H143.077V92.3079Z" fill="black"/>
<path d="M147.692 92.3079H143.077V96.9232H147.692V92.3079Z" fill="black"/>
<path d="M152.308 92.3079H147.692V96.9232H152.308V92.3079Z" fill="black"/>
<path d="M156.923 92.3079H152.308V96.9232H156.923V92.3079Z" fill="black"/>
<path d="M175.385 92.3079H170.769V96.9232H175.385V92.3079Z" fill="black"/>
<path d="M18.4615 96.9231H13.8461V101.538H18.4615V96.9231Z" fill="black"/>
<path d="M36.9231 96.9231H32.3077V101.538H36.9231V96.9231Z" fill="black"/>
<path d="M60 96.9231H55.3846V101.538H60V96.9231Z" fill="black"/>
<path d="M69.2307 96.9231H64.6154V101.538H69.2307V96.9231Z" fill="black"/>
<path d="M83.0769 96.9231H78.4615V101.538H83.0769V96.9231Z" fill="black"/>
<path d="M87.6923 96.9231H83.0769V101.538H87.6923V96.9231Z" fill="black"/>
<path d="M92.3076 96.9231H87.6923V101.538H92.3076V96.9231Z" fill="black"/>
<path d="M124.615 96.9231H120V101.538H124.615V96.9231Z" fill="black"/>
<path d="M129.231 96.9231H124.615V101.538H129.231V96.9231Z" fill="black"/>
<path d="M143.077 96.9231H138.462V101.538H143.077V96.9231Z" fill="black"/>
<path d="M147.692 96.9231H143.077V101.538H147.692V96.9231Z" fill="black"/>
<path d="M152.308 96.9231H147.692V101.538H152.308V96.9231Z" fill="black"/>
<path d="M156.923 96.9231H152.308V101.538H156.923V96.9231Z" fill="black"/>
<path d="M166.154 96.9231H161.538V101.538H166.154V96.9231Z" fill="black"/>
<path d="M170.769 96.9231H166.154V101.538H170.769V96.9231Z" fill="black"/>
<path d="M9.23074 101.539H4.61536V106.154H9.23074V101.539Z" fill="black"/>
<path d="M13.8461 101.539H9.23071V106.154H13.8461V101.539Z" fill="black"/>
<path d="M23.0769 101.539H18.4615V106.154H23.0769V101.539Z" fill="black"/>
<path d="M27.6923 101.539H23.0769V106.154H27.6923V101.539Z" fill="black"/>
<path d="M41.5384 101.539H36.923V106.154H41.5384V101.539Z" fill="black"/>
<path d="M46.1538 101.539H41.5385V106.154H46.1538V101.539Z" fill="black"/>
<path d="M60 101.539H55.3846V106.154H60V101.539Z" fill="black"/>
<path d="M64.6154 101.539H60V106.154H64.6154V101.539Z" fill="black"/>
<path d="M87.6923 101.539H83.0769V106.154H87.6923V101.539Z" fill="black"/>
<path d="M101.538 101.539H96.923V106.154H101.538V101.539Z" fill="black"/>
<path d="M106.154 101.539H101.538V106.154H106.154V101.539Z" fill="black"/>
<path d="M152.308 101.539H147.692V106.154H152.308V101.539Z" fill="black"/>
<path d="M166.154 101.539H161.538V106.154H166.154V101.539Z" fill="black"/>
<path d="M170.769 101.539H166.154V106.154H170.769V101.539Z" fill="black"/>
<path d="M23.0769 106.154H18.4615V110.769H23.0769V106.154Z" fill="black"/>
<path d="M27.6923 106.154H23.0769V110.769H27.6923V106.154Z" fill="black"/>
<path d="M36.9231 106.154H32.3077V110.769H36.9231V106.154Z" fill="black"/>
<path d="M41.5384 106.154H36.923V110.769H41.5384V106.154Z" fill="black"/>
<path d="M46.1538 106.154H41.5385V110.769H46.1538V106.154Z" fill="black"/>
<path d="M50.7692 106.154H46.1538V110.769H50.7692V106.154Z" fill="black"/>
<path d="M60 106.154H55.3846V110.769H60V106.154Z" fill="black"/>
<path d="M73.8461 106.154H69.2307V110.769H73.8461V106.154Z" fill="black"/>
<path d="M78.4615 106.154H73.8461V110.769H78.4615V106.154Z" fill="black"/>
<path d="M92.3076 106.154H87.6923V110.769H92.3076V106.154Z" fill="black"/>
<path d="M96.9231 106.154H92.3077V110.769H96.9231V106.154Z" fill="black"/>
<path d="M120 106.154H115.385V110.769H120V106.154Z" fill="black"/>
<path d="M124.615 106.154H120V110.769H124.615V106.154Z" fill="black"/>
<path d="M129.231 106.154H124.615V110.769H129.231V106.154Z" fill="black"/>
<path d="M133.846 106.154H129.231V110.769H133.846V106.154Z" fill="black"/>
<path d="M143.077 106.154H138.462V110.769H143.077V106.154Z" fill="black"/>
<path d="M170.769 106.154H166.154V110.769H170.769V106.154Z" fill="black"/>
<path d="M175.385 106.154H170.769V110.769H175.385V106.154Z" fill="black"/>
<path d="M9.23074 110.769H4.61536V115.385H9.23074V110.769Z" fill="black"/>
<path d="M23.0769 110.769H18.4615V115.385H23.0769V110.769Z" fill="black"/>
<path d="M27.6923 110.769H23.0769V115.385H27.6923V110.769Z" fill="black"/>
<path d="M32.3076 110.769H27.6923V115.385H32.3076V110.769Z" fill="black"/>
<path d="M60 110.769H55.3846V115.385H60V110.769Z" fill="black"/>
<path d="M69.2307 110.769H64.6154V115.385H69.2307V110.769Z" fill="black"/>
<path d="M73.8461 110.769H69.2307V115.385H73.8461V110.769Z" fill="black"/>
<path d="M78.4615 110.769H73.8461V115.385H78.4615V110.769Z" fill="black"/>
<path d="M83.0769 110.769H78.4615V115.385H83.0769V110.769Z" fill="black"/>
<path d="M87.6923 110.769H83.0769V115.385H87.6923V110.769Z" fill="black"/>
<path d="M92.3076 110.769H87.6923V115.385H92.3076V110.769Z" fill="black"/>
<path d="M101.538 110.769H96.923V115.385H101.538V110.769Z" fill="black"/>
<path d="M106.154 110.769H101.538V115.385H106.154V110.769Z" fill="black"/>
<path d="M110.769 110.769H106.154V115.385H110.769V110.769Z" fill="black"/>
<path d="M129.231 110.769H124.615V115.385H129.231V110.769Z" fill="black"/>
<path d="M152.308 110.769H147.692V115.385H152.308V110.769Z" fill="black"/>
<path d="M161.538 110.769H156.923V115.385H161.538V110.769Z" fill="black"/>
<path d="M170.769 110.769H166.154V115.385H170.769V110.769Z" fill="black"/>
<path d="M175.385 110.769H170.769V115.385H175.385V110.769Z" fill="black"/>
<path d="M9.23074 115.385H4.61536V120H9.23074V115.385Z" fill="black"/>
<path d="M18.4615 115.385H13.8461V120H18.4615V115.385Z" fill="black"/>
<path d="M23.0769 115.385H18.4615V120H23.0769V115.385Z" fill="black"/>
<path d="M32.3076 115.385H27.6923V120H32.3076V115.385Z" fill="black"/>
<path d="M36.9231 115.385H32.3077V120H36.9231V115.385Z" fill="black"/>
<path d="M46.1538 115.385H41.5385V120H46.1538V115.385Z" fill="black"/>
<path d="M50.7692 115.385H46.1538V120H50.7692V115.385Z" fill="black"/>
<path d="M64.6154 115.385H60V120H64.6154V115.385Z" fill="black"/>
<path d="M73.8461 115.385H69.2307V120H73.8461V115.385Z" fill="black"/>
<path d="M78.4615 115.385H73.8461V120H78.4615V115.385Z" fill="black"/>
<path d="M83.0769 115.385H78.4615V120H83.0769V115.385Z" fill="black"/>
<path d="M87.6923 115.385H83.0769V120H87.6923V115.385Z" fill="black"/>
<path d="M101.538 115.385H96.923V120H101.538V115.385Z" fill="black"/>
<path d="M106.154 115.385H101.538V120H106.154V115.385Z" fill="black"/>
<path d="M110.769 115.385H106.154V120H110.769V115.385Z" fill="black"/>
<path d="M115.385 115.385H110.769V120H115.385V115.385Z" fill="black"/>
<path d="M120 115.385H115.385V120H120V115.385Z" fill="black"/>
<path d="M124.615 115.385H120V120H124.615V115.385Z" fill="black"/>
<path d="M129.231 115.385H124.615V120H129.231V115.385Z" fill="black"/>
<path d="M143.077 115.385H138.462V120H143.077V115.385Z" fill="black"/>
<path d="M147.692 115.385H143.077V120H147.692V115.385Z" fill="black"/>
<path d="M156.923 115.385H152.308V120H156.923V115.385Z" fill="black"/>
<path d="M166.154 115.385H161.538V120H166.154V115.385Z" fill="black"/>
<path d="M170.769 115.385H166.154V120H170.769V115.385Z" fill="black"/>
<path d="M9.23074 120H4.61536V124.615H9.23074V120Z" fill="black"/>
<path d="M32.3076 120H27.6923V124.615H32.3076V120Z" fill="black"/>
<path d="M46.1538 120H41.5385V124.615H46.1538V120Z" fill="black"/>
<path d="M60 120H55.3846V124.615H60V120Z" fill="black"/>
<path d="M83.0769 120H78.4615V124.615H83.0769V120Z" fill="black"/>
<path d="M92.3076 120H87.6923V124.615H92.3076V120Z" fill="black"/>
<path d="M96.9231 120H92.3077V124.615H96.9231V120Z" fill="black"/>
<path d="M101.538 120H96.923V124.615H101.538V120Z" fill="black"/>
<path d="M120 120H115.385V124.615H120V120Z" fill="black"/>
<path d="M138.462 120H133.846V124.615H138.462V120Z" fill="black"/>
<path d="M152.308 120H147.692V124.615H152.308V120Z" fill="black"/>
<path d="M166.154 120H161.538V124.615H166.154V120Z" fill="black"/>
<path d="M9.23074 124.615H4.61536V129.231H9.23074V124.615Z" fill="black"/>
<path d="M18.4615 124.615H13.8461V129.231H18.4615V124.615Z" fill="black"/>
<path d="M23.0769 124.615H18.4615V129.231H23.0769V124.615Z" fill="black"/>
<path d="M27.6923 124.615H23.0769V129.231H27.6923V124.615Z" fill="black"/>
<path d="M32.3076 124.615H27.6923V129.231H32.3076V124.615Z" fill="black"/>
<path d="M36.9231 124.615H32.3077V129.231H36.9231V124.615Z" fill="black"/>
<path d="M50.7692 124.615H46.1538V129.231H50.7692V124.615Z" fill="black"/>
<path d="M55.3846 124.615H50.7692V129.231H55.3846V124.615Z" fill="black"/>
<path d="M60 124.615H55.3846V129.231H60V124.615Z" fill="black"/>
<path d="M69.2307 124.615H64.6154V129.231H69.2307V124.615Z" fill="black"/>
<path d="M78.4615 124.615H73.8461V129.231H78.4615V124.615Z" fill="black"/>
<path d="M92.3076 124.615H87.6923V129.231H92.3076V124.615Z" fill="black"/>
<path d="M96.9231 124.615H92.3077V129.231H96.9231V124.615Z" fill="black"/>
<path d="M101.538 124.615H96.923V129.231H101.538V124.615Z" fill="black"/>
<path d="M106.154 124.615H101.538V129.231H106.154V124.615Z" fill="black"/>
<path d="M110.769 124.615H106.154V129.231H110.769V124.615Z" fill="black"/>
<path d="M120 124.615H115.385V129.231H120V124.615Z" fill="black"/>
<path d="M124.615 124.615H120V129.231H124.615V124.615Z" fill="black"/>
<path d="M129.231 124.615H124.615V129.231H129.231V124.615Z" fill="black"/>
<path d="M133.846 124.615H129.231V129.231H133.846V124.615Z" fill="black"/>
<path d="M147.692 124.615H143.077V129.231H147.692V124.615Z" fill="black"/>
<path d="M152.308 124.615H147.692V129.231H152.308V124.615Z" fill="black"/>
<path d="M156.923 124.615H152.308V129.231H156.923V124.615Z" fill="black"/>
<path d="M166.154 124.615H161.538V129.231H166.154V124.615Z" fill="black"/>
<path d="M170.769 124.615H166.154V129.231H170.769V124.615Z" fill="black"/>
<path d="M175.385 124.615H170.769V129.231H175.385V124.615Z" fill="black"/>
<path d="M9.23074 129.231H4.61536V133.846H9.23074V129.231Z" fill="black"/>
<path d="M23.0769 129.231H18.4615V133.846H23.0769V129.231Z" fill="black"/>
<path d="M32.3076 129.231H27.6923V133.846H32.3076V129.231Z" fill="black"/>
<path d="M50.7692 129.231H46.1538V133.846H50.7692V129.231Z" fill="black"/>
<path d="M55.3846 129.231H50.7692V133.846H55.3846V129.231Z" fill="black"/>
<path d="M69.2307 129.231H64.6154V133.846H69.2307V129.231Z" fill="black"/>
<path d="M83.0769 129.231H78.4615V133.846H83.0769V129.231Z" fill="black"/>
<path d="M87.6923 129.231H83.0769V133.846H87.6923V129.231Z" fill="black"/>
<path d="M92.3076 129.231H87.6923V133.846H92.3076V129.231Z" fill="black"/>
<path d="M96.9231 129.231H92.3077V133.846H96.9231V129.231Z" fill="black"/>
<path d="M115.385 129.231H110.769V133.846H115.385V129.231Z" fill="black"/>
<path d="M120 129.231H115.385V133.846H120V129.231Z" fill="black"/>
<path d="M129.231 129.231H124.615V133.846H129.231V129.231Z" fill="black"/>
<path d="M133.846 129.231H129.231V133.846H133.846V129.231Z" fill="black"/>
<path d="M138.462 129.231H133.846V133.846H138.462V129.231Z" fill="black"/>
<path d="M143.077 129.231H138.462V133.846H143.077V129.231Z" fill="black"/>
<path d="M156.923 129.231H152.308V133.846H156.923V129.231Z" fill="black"/>
<path d="M9.23074 133.846H4.61536V138.462H9.23074V133.846Z" fill="black"/>
<path d="M18.4615 133.846H13.8461V138.462H18.4615V133.846Z" fill="black"/>
<path d="M27.6923 133.846H23.0769V138.462H27.6923V133.846Z" fill="black"/>
<path d="M36.9231 133.846H32.3077V138.462H36.9231V133.846Z" fill="black"/>
<path d="M41.5384 133.846H36.923V138.462H41.5384V133.846Z" fill="black"/>
<path d="M46.1538 133.846H41.5385V138.462H46.1538V133.846Z" fill="black"/>
<path d="M50.7692 133.846H46.1538V138.462H50.7692V133.846Z" fill="black"/>
<path d="M55.3846 133.846H50.7692V138.462H55.3846V133.846Z" fill="black"/>
<path d="M60 133.846H55.3846V138.462H60V133.846Z" fill="black"/>
<path d="M69.2307 133.846H64.6154V138.462H69.2307V133.846Z" fill="black"/>
<path d="M78.4615 133.846H73.8461V138.462H78.4615V133.846Z" fill="black"/>
<path d="M87.6923 133.846H83.0769V138.462H87.6923V133.846Z" fill="black"/>
<path d="M101.538 133.846H96.923V138.462H101.538V133.846Z" fill="black"/>
<path d="M124.615 133.846H120V138.462H124.615V133.846Z" fill="black"/>
<path d="M129.231 133.846H124.615V138.462H129.231V133.846Z" fill="black"/>
<path d="M138.462 133.846H133.846V138.462H138.462V133.846Z" fill="black"/>
<path d="M143.077 133.846H138.462V138.462H143.077V133.846Z" fill="black"/>
<path d="M147.692 133.846H143.077V138.462H147.692V133.846Z" fill="black"/>
<path d="M152.308 133.846H147.692V138.462H152.308V133.846Z" fill="black"/>
<path d="M156.923 133.846H152.308V138.462H156.923V133.846Z" fill="black"/>
<path d="M161.538 133.846H156.923V138.462H161.538V133.846Z" fill="black"/>
<path d="M166.154 133.846H161.538V138.462H166.154V133.846Z" fill="black"/>
<path d="M170.769 133.846H166.154V138.462H170.769V133.846Z" fill="black"/>
<path d="M46.1538 138.462H41.5385V143.077H46.1538V138.462Z" fill="black"/>
<path d="M64.6154 138.462H60V143.077H64.6154V138.462Z" fill="black"/>
<path d="M83.0769 138.462H78.4615V143.077H83.0769V138.462Z" fill="black"/>
<path d="M96.9231 138.462H92.3077V143.077H96.9231V138.462Z" fill="black"/>
<path d="M106.154 138.462H101.538V143.077H106.154V138.462Z" fill="black"/>
<path d="M115.385 138.462H110.769V143.077H115.385V138.462Z" fill="black"/>
<path d="M120 138.462H115.385V143.077H120V138.462Z" fill="black"/>
<path d="M124.615 138.462H120V143.077H124.615V138.462Z" fill="black"/>
<path d="M129.231 138.462H124.615V143.077H129.231V138.462Z" fill="black"/>
<path d="M133.846 138.462H129.231V143.077H133.846V138.462Z" fill="black"/>
<path d="M138.462 138.462H133.846V143.077H138.462V138.462Z" fill="black"/>
<path d="M156.923 138.462H152.308V143.077H156.923V138.462Z" fill="black"/>
<path d="M9.23074 143.077H4.61536V147.692H9.23074V143.077Z" fill="black"/>
<path d="M13.8461 143.077H9.23071V147.692H13.8461V143.077Z" fill="black"/>
<path d="M18.4615 143.077H13.8461V147.692H18.4615V143.077Z" fill="black"/>
<path d="M23.0769 143.077H18.4615V147.692H23.0769V143.077Z" fill="black"/>
<path d="M27.6923 143.077H23.0769V147.692H27.6923V143.077Z" fill="black"/>
<path d="M32.3076 143.077H27.6923V147.692H32.3076V143.077Z" fill="black"/>
<path d="M36.9231 143.077H32.3077V147.692H36.9231V143.077Z" fill="black"/>
<path d="M60 143.077H55.3846V147.692H60V143.077Z" fill="black"/>
<path d="M73.8461 143.077H69.2307V147.692H73.8461V143.077Z" fill="black"/>
<path d="M96.9231 143.077H92.3077V147.692H96.9231V143.077Z" fill="black"/>
<path d="M110.769 143.077H106.154V147.692H110.769V143.077Z" fill="black"/>
<path d="M120 143.077H115.385V147.692H120V143.077Z" fill="black"/>
<path d="M124.615 143.077H120V147.692H124.615V143.077Z" fill="black"/>
<path d="M129.231 143.077H124.615V147.692H129.231V143.077Z" fill="black"/>
<path d="M138.462 143.077H133.846V147.692H138.462V143.077Z" fill="black"/>
<path d="M147.692 143.077H143.077V147.692H147.692V143.077Z" fill="black"/>
<path d="M156.923 143.077H152.308V147.692H156.923V143.077Z" fill="black"/>
<path d="M161.538 143.077H156.923V147.692H161.538V143.077Z" fill="black"/>
<path d="M170.769 143.077H166.154V147.692H170.769V143.077Z" fill="black"/>
<path d="M175.385 143.077H170.769V147.692H175.385V143.077Z" fill="black"/>
<path d="M9.23074 147.692H4.61536V152.308H9.23074V147.692Z" fill="black"/>
<path d="M36.9231 147.692H32.3077V152.308H36.9231V147.692Z" fill="black"/>
<path d="M64.6154 147.692H60V152.308H64.6154V147.692Z" fill="black"/>
<path d="M69.2307 147.692H64.6154V152.308H69.2307V147.692Z" fill="black"/>
<path d="M101.538 147.692H96.923V152.308H101.538V147.692Z" fill="black"/>
<path d="M106.154 147.692H101.538V152.308H106.154V147.692Z" fill="black"/>
<path d="M115.385 147.692H110.769V152.308H115.385V147.692Z" fill="black"/>
<path d="M120 147.692H115.385V152.308H120V147.692Z" fill="black"/>
<path d="M138.462 147.692H133.846V152.308H138.462V147.692Z" fill="black"/>
<path d="M156.923 147.692H152.308V152.308H156.923V147.692Z" fill="black"/>
<path d="M175.385 147.692H170.769V152.308H175.385V147.692Z" fill="black"/>
<path d="M9.23074 152.308H4.61536V156.923H9.23074V152.308Z" fill="black"/>
<path d="M18.4615 152.308H13.8461V156.923H18.4615V152.308Z" fill="black"/>
<path d="M23.0769 152.308H18.4615V156.923H23.0769V152.308Z" fill="black"/>
<path d="M27.6923 152.308H23.0769V156.923H27.6923V152.308Z" fill="black"/>
<path d="M36.9231 152.308H32.3077V156.923H36.9231V152.308Z" fill="black"/>
<path d="M46.1538 152.308H41.5385V156.923H46.1538V152.308Z" fill="black"/>
<path d="M50.7692 152.308H46.1538V156.923H50.7692V152.308Z" fill="black"/>
<path d="M55.3846 152.308H50.7692V156.923H55.3846V152.308Z" fill="black"/>
<path d="M64.6154 152.308H60V156.923H64.6154V152.308Z" fill="black"/>
<path d="M73.8461 152.308H69.2307V156.923H73.8461V152.308Z" fill="black"/>
<path d="M78.4615 152.308H73.8461V156.923H78.4615V152.308Z" fill="black"/>
<path d="M83.0769 152.308H78.4615V156.923H83.0769V152.308Z" fill="black"/>
<path d="M87.6923 152.308H83.0769V156.923H87.6923V152.308Z" fill="black"/>
<path d="M101.538 152.308H96.923V156.923H101.538V152.308Z" fill="black"/>
<path d="M106.154 152.308H101.538V156.923H106.154V152.308Z" fill="black"/>
<path d="M110.769 152.308H106.154V156.923H110.769V152.308Z" fill="black"/>
<path d="M120 152.308H115.385V156.923H120V152.308Z" fill="black"/>
<path d="M124.615 152.308H120V156.923H124.615V152.308Z" fill="black"/>
<path d="M133.846 152.308H129.231V156.923H133.846V152.308Z" fill="black"/>
<path d="M138.462 152.308H133.846V156.923H138.462V152.308Z" fill="black"/>
<path d="M143.077 152.308H138.462V156.923H143.077V152.308Z" fill="black"/>
<path d="M147.692 152.308H143.077V156.923H147.692V152.308Z" fill="black"/>
<path d="M152.308 152.308H147.692V156.923H152.308V152.308Z" fill="black"/>
<path d="M156.923 152.308H152.308V156.923H156.923V152.308Z" fill="black"/>
<path d="M166.154 152.308H161.538V156.923H166.154V152.308Z" fill="black"/>
<path d="M170.769 152.308H166.154V156.923H170.769V152.308Z" fill="black"/>
<path d="M175.385 152.308H170.769V156.923H175.385V152.308Z" fill="black"/>
<path d="M9.23074 156.923H4.61536V161.538H9.23074V156.923Z" fill="black"/>
<path d="M18.4615 156.923H13.8461V161.538H18.4615V156.923Z" fill="black"/>
<path d="M23.0769 156.923H18.4615V161.538H23.0769V156.923Z" fill="black"/>
<path d="M27.6923 156.923H23.0769V161.538H27.6923V156.923Z" fill="black"/>
<path d="M36.9231 156.923H32.3077V161.538H36.9231V156.923Z" fill="black"/>
<path d="M46.1538 156.923H41.5385V161.538H46.1538V156.923Z" fill="black"/>
<path d="M50.7692 156.923H46.1538V161.538H50.7692V156.923Z" fill="black"/>
<path d="M55.3846 156.923H50.7692V161.538H55.3846V156.923Z" fill="black"/>
<path d="M60 156.923H55.3846V161.538H60V156.923Z" fill="black"/>
<path d="M64.6154 156.923H60V161.538H64.6154V156.923Z" fill="black"/>
<path d="M69.2307 156.923H64.6154V161.538H69.2307V156.923Z" fill="black"/>
<path d="M78.4615 156.923H73.8461V161.538H78.4615V156.923Z" fill="black"/>
<path d="M83.0769 156.923H78.4615V161.538H83.0769V156.923Z" fill="black"/>
<path d="M87.6923 156.923H83.0769V161.538H87.6923V156.923Z" fill="black"/>
<path d="M101.538 156.923H96.923V161.538H101.538V156.923Z" fill="black"/>
<path d="M115.385 156.923H110.769V161.538H115.385V156.923Z" fill="black"/>
<path d="M133.846 156.923H129.231V161.538H133.846V156.923Z" fill="black"/>
<path d="M138.462 156.923H133.846V161.538H138.462V156.923Z" fill="black"/>
<path d="M147.692 156.923H143.077V161.538H147.692V156.923Z" fill="black"/>
<path d="M152.308 156.923H147.692V161.538H152.308V156.923Z" fill="black"/>
<path d="M156.923 156.923H152.308V161.538H156.923V156.923Z" fill="black"/>
<path d="M9.23074 161.539H4.61536V166.154H9.23074V161.539Z" fill="black"/>
<path d="M18.4615 161.539H13.8461V166.154H18.4615V161.539Z" fill="black"/>
<path d="M23.0769 161.539H18.4615V166.154H23.0769V161.539Z" fill="black"/>
<path d="M27.6923 161.539H23.0769V166.154H27.6923V161.539Z" fill="black"/>
<path d="M36.9231 161.539H32.3077V166.154H36.9231V161.539Z" fill="black"/>
<path d="M46.1538 161.539H41.5385V166.154H46.1538V161.539Z" fill="black"/>
<path d="M60 161.539H55.3846V166.154H60V161.539Z" fill="black"/>
<path d="M69.2307 161.539H64.6154V166.154H69.2307V161.539Z" fill="black"/>
<path d="M83.0769 161.539H78.4615V166.154H83.0769V161.539Z" fill="black"/>
<path d="M92.3076 161.539H87.6923V166.154H92.3076V161.539Z" fill="black"/>
<path d="M106.154 161.539H101.538V166.154H106.154V161.539Z" fill="black"/>
<path d="M110.769 161.539H106.154V166.154H110.769V161.539Z" fill="black"/>
<path d="M129.231 161.539H124.615V166.154H129.231V161.539Z" fill="black"/>
<path d="M143.077 161.539H138.462V166.154H143.077V161.539Z" fill="black"/>
<path d="M152.308 161.539H147.692V166.154H152.308V161.539Z" fill="black"/>
<path d="M161.538 161.539H156.923V166.154H161.538V161.539Z" fill="black"/>
<path d="M175.385 161.539H170.769V166.154H175.385V161.539Z" fill="black"/>
<path d="M9.23074 166.154H4.61536V170.769H9.23074V166.154Z" fill="black"/>
<path d="M36.9231 166.154H32.3077V170.769H36.9231V166.154Z" fill="black"/>
<path d="M55.3846 166.154H50.7692V170.769H55.3846V166.154Z" fill="black"/>
<path d="M60 166.154H55.3846V170.769H60V166.154Z" fill="black"/>
<path d="M69.2307 166.154H64.6154V170.769H69.2307V166.154Z" fill="black"/>
<path d="M83.0769 166.154H78.4615V170.769H83.0769V166.154Z" fill="black"/>
<path d="M92.3076 166.154H87.6923V170.769H92.3076V166.154Z" fill="black"/>
<path d="M106.154 166.154H101.538V170.769H106.154V166.154Z" fill="black"/>
<path d="M129.231 166.154H124.615V170.769H129.231V166.154Z" fill="black"/>
<path d="M133.846 166.154H129.231V170.769H133.846V166.154Z" fill="black"/>
<path d="M138.462 166.154H133.846V170.769H138.462V166.154Z" fill="black"/>
<path d="M143.077 166.154H138.462V170.769H143.077V166.154Z" fill="black"/>
<path d="M147.692 166.154H143.077V170.769H147.692V166.154Z" fill="black"/>
<path d="M152.308 166.154H147.692V170.769H152.308V166.154Z" fill="black"/>
<path d="M156.923 166.154H152.308V170.769H156.923V166.154Z" fill="black"/>
<path d="M175.385 166.154H170.769V170.769H175.385V166.154Z" fill="black"/>
<path d="M9.23074 170.769H4.61536V175.385H9.23074V170.769Z" fill="black"/>
<path d="M13.8461 170.769H9.23071V175.385H13.8461V170.769Z" fill="black"/>
<path d="M18.4615 170.769H13.8461V175.385H18.4615V170.769Z" fill="black"/>
<path d="M23.0769 170.769H18.4615V175.385H23.0769V170.769Z" fill="black"/>
<path d="M27.6923 170.769H23.0769V175.385H27.6923V170.769Z" fill="black"/>
<path d="M32.3076 170.769H27.6923V175.385H32.3076V170.769Z" fill="black"/>
<path d="M36.9231 170.769H32.3077V175.385H36.9231V170.769Z" fill="black"/>
<path d="M55.3846 170.769H50.7692V175.385H55.3846V170.769Z" fill="black"/>
<path d="M73.8461 170.769H69.2307V175.385H73.8461V170.769Z" fill="black"/>
<path d="M78.4615 170.769H73.8461V175.385H78.4615V170.769Z" fill="black"/>
<path d="M83.0769 170.769H78.4615V175.385H83.0769V170.769Z" fill="black"/>
<path d="M92.3076 170.769H87.6923V175.385H92.3076V170.769Z" fill="black"/>
<path d="M101.538 170.769H96.923V175.385H101.538V170.769Z" fill="black"/>
<path d="M106.154 170.769H101.538V175.385H106.154V170.769Z" fill="black"/>
<path d="M110.769 170.769H106.154V175.385H110.769V170.769Z" fill="black"/>
<path d="M124.615 170.769H120V175.385H124.615V170.769Z" fill="black"/>
<path d="M129.231 170.769H124.615V175.385H129.231V170.769Z" fill="black"/>
<path d="M143.077 170.769H138.462V175.385H143.077V170.769Z" fill="black"/>
<path d="M147.692 170.769H143.077V175.385H147.692V170.769Z" fill="black"/>
<path d="M152.308 170.769H147.692V175.385H152.308V170.769Z" fill="black"/>
<path d="M156.923 170.769H152.308V175.385H156.923V170.769Z" fill="black"/>
<path d="M161.538 170.769H156.923V175.385H161.538V170.769Z" fill="black"/>
<path d="M166.154 170.769H161.538V175.385H166.154V170.769Z" fill="black"/>
<path d="M170.769 170.769H166.154V175.385H170.769V170.769Z" fill="black"/>
<path d="M175.385 170.769H170.769V175.385H175.385V170.769Z" fill="black"/>
</svg>
