<svg width="375" height="103" viewBox="0 0 375 103" fill="none" xmlns="http://www.w3.org/2000/svg">
<circle cx="119.5" cy="45.5" r="1.5" fill="#EAECF6"/>
<circle cx="133.5" cy="45.5" r="1.5" fill="#EAECF6"/>
<circle cx="133.5" cy="45.5" r="1.5" fill="#EAECF6"/>
<circle cx="147.5" cy="45.5" r="1.5" fill="#EAECF6"/>
<circle cx="161.5" cy="45.5" r="1.5" fill="#EAECF6"/>
<circle cx="161.5" cy="45.5" r="1.5" fill="#EAECF6"/>
<circle cx="175.5" cy="45.5" r="1.5" fill="#EAECF6"/>
<circle cx="189.5" cy="45.5" r="1.5" fill="#EAECF6"/>
<circle cx="189.5" cy="45.5" r="1.5" fill="#EAECF6"/>
<circle cx="203.5" cy="45.5" r="1.5" fill="#EAECF6"/>
<circle cx="217.5" cy="45.5" r="1.5" fill="#EAECF6"/>
<circle cx="217.5" cy="45.5" r="1.5" fill="#EAECF6"/>
<circle cx="231.5" cy="45.5" r="1.5" fill="#EAECF6"/>
<circle cx="245.5" cy="45.5" r="1.5" fill="#EAECF6"/>
<circle cx="245.5" cy="45.5" r="1.5" fill="#EAECF6"/>
<circle cx="259.5" cy="45.5" r="1.5" fill="#EAECF6"/>
<circle cx="273.5" cy="45.5" r="1.5" fill="#EAECF6"/>
<circle cx="273.5" cy="45.5" r="1.5" fill="#EAECF6"/>
<circle cx="287.5" cy="45.5" r="1.5" fill="#EAECF6"/>
<circle cx="301.5" cy="45.5" r="1.5" fill="#EAECF6"/>
<circle cx="301.5" cy="45.5" r="1.5" fill="#EAECF6"/>
<circle cx="119.5" cy="59.5" r="1.5" fill="#EAECF6"/>
<circle cx="133.5" cy="59.5" r="1.5" fill="#EAECF6"/>
<circle cx="133.5" cy="59.5" r="1.5" fill="#EAECF6"/>
<circle cx="147.5" cy="59.5" r="1.5" fill="#EAECF6"/>
<circle cx="161.5" cy="59.5" r="1.5" fill="#EAECF6"/>
<circle cx="161.5" cy="59.5" r="1.5" fill="#EAECF6"/>
<circle cx="175.5" cy="59.5" r="1.5" fill="#EAECF6"/>
<circle cx="189.5" cy="59.5" r="1.5" fill="#EAECF6"/>
<circle cx="189.5" cy="59.5" r="1.5" fill="#EAECF6"/>
<circle cx="203.5" cy="59.5" r="1.5" fill="#EAECF6"/>
<circle cx="217.5" cy="59.5" r="1.5" fill="#EAECF6"/>
<circle cx="217.5" cy="59.5" r="1.5" fill="#EAECF6"/>
<circle cx="231.5" cy="59.5" r="1.5" fill="#EAECF6"/>
<circle cx="245.5" cy="59.5" r="1.5" fill="#EAECF6"/>
<circle cx="245.5" cy="59.5" r="1.5" fill="#EAECF6"/>
<circle cx="259.5" cy="59.5" r="1.5" fill="#EAECF6"/>
<circle cx="273.5" cy="59.5" r="1.5" fill="#EAECF6"/>
<circle cx="273.5" cy="59.5" r="1.5" fill="#EAECF6"/>
<circle cx="287.5" cy="59.5" r="1.5" fill="#EAECF6"/>
<circle cx="301.5" cy="59.5" r="1.5" fill="#EAECF6"/>
<circle cx="301.5" cy="59.5" r="1.5" fill="#EAECF6"/>
<circle cx="119.5" cy="73.5" r="1.5" fill="#EAECF6"/>
<circle cx="133.5" cy="73.5" r="1.5" fill="#EAECF6"/>
<circle cx="133.5" cy="73.5" r="1.5" fill="#EAECF6"/>
<circle cx="147.5" cy="73.5" r="1.5" fill="#EAECF6"/>
<circle cx="161.5" cy="73.5" r="1.5" fill="#EAECF6"/>
<circle cx="161.5" cy="73.5" r="1.5" fill="#EAECF6"/>
<circle cx="175.5" cy="73.5" r="1.5" fill="#EAECF6"/>
<circle cx="189.5" cy="73.5" r="1.5" fill="#EAECF6"/>
<circle cx="189.5" cy="73.5" r="1.5" fill="#EAECF6"/>
<circle cx="203.5" cy="73.5" r="1.5" fill="#EAECF6"/>
<circle cx="217.5" cy="73.5" r="1.5" fill="#EAECF6"/>
<circle cx="217.5" cy="73.5" r="1.5" fill="#EAECF6"/>
<circle cx="231.5" cy="73.5" r="1.5" fill="#EAECF6"/>
<circle cx="245.5" cy="73.5" r="1.5" fill="#EAECF6"/>
<circle cx="245.5" cy="73.5" r="1.5" fill="#EAECF6"/>
<circle cx="259.5" cy="73.5" r="1.5" fill="#EAECF6"/>
<circle cx="273.5" cy="73.5" r="1.5" fill="#EAECF6"/>
<circle cx="273.5" cy="73.5" r="1.5" fill="#EAECF6"/>
<circle cx="287.5" cy="73.5" r="1.5" fill="#EAECF6"/>
<circle cx="301.5" cy="73.5" r="1.5" fill="#EAECF6"/>
<circle cx="301.5" cy="73.5" r="1.5" fill="#EAECF6"/>
<circle cx="119.5" cy="87.5" r="1.5" fill="#EAECF6"/>
<circle cx="133.5" cy="87.5" r="1.5" fill="#EAECF6"/>
<circle cx="133.5" cy="87.5" r="1.5" fill="#EAECF6"/>
<circle cx="147.5" cy="87.5" r="1.5" fill="#EAECF6"/>
<circle cx="161.5" cy="87.5" r="1.5" fill="#EAECF6"/>
<circle cx="161.5" cy="87.5" r="1.5" fill="#EAECF6"/>
<circle cx="175.5" cy="87.5" r="1.5" fill="#EAECF6"/>
<circle cx="189.5" cy="87.5" r="1.5" fill="#EAECF6"/>
<circle cx="189.5" cy="87.5" r="1.5" fill="#EAECF6"/>
<circle cx="203.5" cy="87.5" r="1.5" fill="#EAECF6"/>
<circle cx="217.5" cy="87.5" r="1.5" fill="#EAECF6"/>
<circle cx="217.5" cy="87.5" r="1.5" fill="#EAECF6"/>
<circle cx="231.5" cy="87.5" r="1.5" fill="#EAECF6"/>
<circle cx="245.5" cy="87.5" r="1.5" fill="#EAECF6"/>
<circle cx="245.5" cy="87.5" r="1.5" fill="#EAECF6"/>
<circle cx="259.5" cy="87.5" r="1.5" fill="#EAECF6"/>
<circle cx="273.5" cy="87.5" r="1.5" fill="#EAECF6"/>
<circle cx="273.5" cy="87.5" r="1.5" fill="#EAECF6"/>
<circle cx="287.5" cy="87.5" r="1.5" fill="#EAECF6"/>
<circle cx="301.5" cy="87.5" r="1.5" fill="#EAECF6"/>
<circle cx="301.5" cy="87.5" r="1.5" fill="#EAECF6"/>
<circle cx="119.5" cy="101.5" r="1.5" fill="#EAECF6"/>
<circle cx="133.5" cy="101.5" r="1.5" fill="#EAECF6"/>
<circle cx="133.5" cy="101.5" r="1.5" fill="#EAECF6"/>
<circle cx="147.5" cy="101.5" r="1.5" fill="#EAECF6"/>
<circle cx="161.5" cy="101.5" r="1.5" fill="#EAECF6"/>
<circle cx="161.5" cy="101.5" r="1.5" fill="#EAECF6"/>
<circle cx="175.5" cy="101.5" r="1.5" fill="#EAECF6"/>
<circle cx="189.5" cy="101.5" r="1.5" fill="#EAECF6"/>
<circle cx="189.5" cy="101.5" r="1.5" fill="#EAECF6"/>
<circle cx="203.5" cy="101.5" r="1.5" fill="#EAECF6"/>
<circle cx="217.5" cy="101.5" r="1.5" fill="#EAECF6"/>
<circle cx="217.5" cy="101.5" r="1.5" fill="#EAECF6"/>
<circle cx="231.5" cy="101.5" r="1.5" fill="#EAECF6"/>
<circle cx="245.5" cy="101.5" r="1.5" fill="#EAECF6"/>
<circle cx="245.5" cy="101.5" r="1.5" fill="#EAECF6"/>
<circle cx="259.5" cy="101.5" r="1.5" fill="#EAECF6"/>
<circle cx="273.5" cy="101.5" r="1.5" fill="#EAECF6"/>
<circle cx="273.5" cy="101.5" r="1.5" fill="#EAECF6"/>
<circle cx="287.5" cy="101.5" r="1.5" fill="#EAECF6"/>
<circle cx="301.5" cy="101.5" r="1.5" fill="#EAECF6"/>
<circle cx="301.5" cy="101.5" r="1.5" fill="#EAECF6"/>
<circle cx="315.5" cy="45.5" r="1.5" fill="#EAECF6"/>
<circle cx="329.5" cy="45.5" r="1.5" fill="#EAECF6"/>
<circle cx="329.5" cy="45.5" r="1.5" fill="#EAECF6"/>
<circle cx="343.5" cy="45.5" r="1.5" fill="#EAECF6"/>
<circle cx="357.5" cy="45.5" r="1.5" fill="#EAECF6"/>
<circle cx="357.5" cy="45.5" r="1.5" fill="#EAECF6"/>
<circle cx="371.5" cy="45.5" r="1.5" fill="#EAECF6"/>
<circle cx="315.5" cy="59.5" r="1.5" fill="#EAECF6"/>
<circle cx="329.5" cy="59.5" r="1.5" fill="#EAECF6"/>
<circle cx="329.5" cy="59.5" r="1.5" fill="#EAECF6"/>
<circle cx="343.5" cy="59.5" r="1.5" fill="#EAECF6"/>
<circle cx="357.5" cy="59.5" r="1.5" fill="#EAECF6"/>
<circle cx="357.5" cy="59.5" r="1.5" fill="#EAECF6"/>
<circle cx="371.5" cy="59.5" r="1.5" fill="#EAECF6"/>
<circle cx="315.5" cy="73.5" r="1.5" fill="#EAECF6"/>
<circle cx="329.5" cy="73.5" r="1.5" fill="#EAECF6"/>
<circle cx="329.5" cy="73.5" r="1.5" fill="#EAECF6"/>
<circle cx="343.5" cy="73.5" r="1.5" fill="#EAECF6"/>
<circle cx="357.5" cy="73.5" r="1.5" fill="#EAECF6"/>
<circle cx="357.5" cy="73.5" r="1.5" fill="#EAECF6"/>
<circle cx="371.5" cy="73.5" r="1.5" fill="#EAECF6"/>
<circle cx="315.5" cy="87.5" r="1.5" fill="#EAECF6"/>
<circle cx="329.5" cy="87.5" r="1.5" fill="#EAECF6"/>
<circle cx="329.5" cy="87.5" r="1.5" fill="#EAECF6"/>
<circle cx="343.5" cy="87.5" r="1.5" fill="#EAECF6"/>
<circle cx="357.5" cy="87.5" r="1.5" fill="#EAECF6"/>
<circle cx="357.5" cy="87.5" r="1.5" fill="#EAECF6"/>
<circle cx="371.5" cy="87.5" r="1.5" fill="#EAECF6"/>
<circle cx="315.5" cy="101.5" r="1.5" fill="#EAECF6"/>
<circle cx="329.5" cy="101.5" r="1.5" fill="#EAECF6"/>
<circle cx="329.5" cy="101.5" r="1.5" fill="#EAECF6"/>
<circle cx="343.5" cy="101.5" r="1.5" fill="#EAECF6"/>
<circle cx="357.5" cy="101.5" r="1.5" fill="#EAECF6"/>
<circle cx="357.5" cy="101.5" r="1.5" fill="#EAECF6"/>
<circle cx="371.5" cy="101.5" r="1.5" fill="#EAECF6"/>
<path d="M121.306 27V15.2388H125.387V12.2036H113.472V15.2388H117.553V27H121.306ZM138.098 11.9473C133.617 11.9473 130.787 14.8901 130.787 19.6069C130.787 24.3237 133.606 27.2563 138.098 27.2563C142.579 27.2563 145.398 24.3237 145.398 19.6069C145.398 14.8901 142.579 11.9473 138.098 11.9473ZM138.098 15.0029C140.2 15.0029 141.574 16.7871 141.574 19.6069C141.574 22.4165 140.2 24.2007 138.098 24.2007C135.985 24.2007 134.622 22.4165 134.622 19.6069C134.622 16.7871 135.996 15.0029 138.098 15.0029ZM155.997 27V22.8164L157.258 21.2168L161.032 27H165.451L159.996 18.7764L165.154 12.2036H161.114L156.079 18.7046H155.997V12.2036H152.234V27H155.997ZM181.751 23.9648H175.373V20.9502H181.372V18.1816H175.373V15.2388H181.751V12.2036H171.61V27H181.751V23.9648ZM192.442 27V18.3149H192.524L198.83 27H201.804V12.2036H198.235V20.8066H198.153L191.878 12.2036H188.874V27H192.442ZM218.934 23.9648H212.812V12.2036H209.049V27H218.934V23.9648ZM231.942 11.9473C227.461 11.9473 224.631 14.8901 224.631 19.6069C224.631 24.3237 227.451 27.2563 231.942 27.2563C236.423 27.2563 239.243 24.3237 239.243 19.6069C239.243 14.8901 236.423 11.9473 231.942 11.9473ZM231.942 15.0029C234.044 15.0029 235.418 16.7871 235.418 19.6069C235.418 22.4165 234.044 24.2007 231.942 24.2007C229.83 24.2007 228.466 22.4165 228.466 19.6069C228.466 16.7871 229.84 15.0029 231.942 15.0029ZM249.647 27V18.3149H249.729L256.035 27H259.009V12.2036H255.44V20.8066H255.358L249.083 12.2036H246.079V27H249.647Z" fill="#EAECF6"/>
<path d="M73.6186 53.9493C75.5526 50.9482 76.6863 47.4804 76.6863 43.6791C76.6863 33.0754 67.7499 24.4724 56.7461 24.4724C51.811 24.4724 47.3428 26.2063 43.875 29.0073C43.7416 29.074 43.6749 29.1407 43.5415 29.274C43.4748 29.3407 43.4748 29.3407 43.4081 29.4074C43.3414 29.4741 43.2747 29.4741 43.2747 29.5408C43.1414 29.6075 43.008 29.7409 42.8746 29.8743C42.6745 30.0743 42.4745 30.2077 42.3411 30.4078C40.207 32.6752 38.7398 35.5429 38.0063 38.6773C38.0063 38.744 38.0062 38.744 37.9396 38.8107C36.4057 43.8791 36.2723 50.2813 39.5401 57.2171C44.942 68.7544 58.2133 75.0233 72.9517 74.6231H73.0184C74.6856 74.5564 75.3525 76.8239 73.8187 77.6242C68.7503 80.2251 62.9482 81.7589 56.8795 81.7589C36.4724 81.7589 20 65.2199 20 44.8795C20 25.8062 34.405 10.1341 52.9448 8.20006C54.2119 8.06668 55.5457 8 56.8795 8C65.0156 8 72.4849 10.6009 78.5537 15.0691C80.2209 16.2695 81.7548 17.6033 83.1553 19.0705C86.5564 22.9385 88.6238 27.8736 88.6238 33.3421C88.6905 42.8121 82.4217 50.9482 73.6186 53.9493Z" fill="#EAECF6"/>
<path d="M95.3601 46.6785C95.3601 46.7452 95.3601 46.8119 95.3601 46.8786C95.2934 58.816 87.224 69.0196 76.0868 71.3537C74.753 71.6205 73.2191 71.8205 72.0854 71.9539C58.5473 73.0876 48.2771 66.6854 43.6755 56.4152C43.0086 54.948 42.5418 53.4808 42.2083 52.0803C41.8749 50.8799 41.6748 49.7462 41.6081 48.6792C41.6081 48.6125 41.6081 48.6125 41.6081 48.6125C41.3414 45.8782 41.5414 43.2773 42.1416 41.0099C42.1416 40.9432 42.1416 40.9432 42.1416 40.9432C42.1416 40.8098 42.2083 40.7431 42.2083 40.6097C42.4084 39.8094 42.7418 39.1425 43.142 38.5423C44.4091 36.675 47.2768 37.2752 47.7436 39.476C48.2104 41.8101 48.944 44.5444 49.8777 46.145C53.6123 52.7472 60.6814 57.2155 68.7509 57.2155C71.3518 57.2155 73.8193 56.7486 76.0868 55.8817C84.4897 52.8139 90.4918 44.7445 90.4918 35.2078C90.4918 29.806 88.4911 24.8042 85.29 21.0029C90.5584 26.6716 94.2264 34.0741 95.16 42.4103C95.2934 43.6774 95.3601 45.1446 95.3601 46.6785Z" fill="#EAECF6"/>
</svg>
