<svg width="16" height="16" viewBox="0 0 16 16" fill="none" xmlns="http://www.w3.org/2000/svg">
<g clip-path="url(#clip0)">
<path fill-rule="evenodd" clip-rule="evenodd" d="M14.314 11.696C14.187 11.682 14.181 11.542 14.156 11.442C14.1231 11.3181 14.1258 11.1874 14.164 11.065C14.26 10.77 14.178 10.529 13.968 10.317C13.8541 10.2074 13.7847 10.0596 13.773 9.902C13.751 9.602 13.555 9.56 13.315 9.614C13.009 9.684 12.715 9.667 12.426 9.541C11.932 9.324 11.761 8.527 12.117 8.086C12.227 7.949 12.35 7.822 12.457 7.683C12.602 7.493 12.717 7.313 12.537 7.054C12.422 6.889 12.539 6.738 12.732 6.681C12.94 6.62 13.02 6.559 12.992 6.278C12.972 6.085 12.749 5.877 12.935 5.661C12.945 5.649 12.919 5.583 12.893 5.564C12.819 5.51 12.77 5.569 12.721 5.619C12.663 5.678 12.601 5.795 12.514 5.718C12.428 5.642 12.544 5.567 12.584 5.495C12.613 5.445 12.642 5.394 12.665 5.34C12.689 5.284 12.715 5.23 12.784 5.225C12.862 5.22 12.876 5.282 12.89 5.34C12.923 5.478 13.019 5.579 13.097 5.69C13.313 6.002 13.33 6.004 13.621 5.764C13.7289 5.67825 13.8147 5.56782 13.871 5.442C13.939 5.284 14.013 5.115 13.731 5.084C13.589 5.068 13.601 4.978 13.635 4.867C13.717 4.593 13.999 4.495 14.145 4.275C14.19 4.206 14.242 4.285 14.278 4.329C14.527 4.636 14.46 5.184 14.143 5.421C14.087 5.463 14.019 5.504 14.04 5.581C14.065 5.671 14.15 5.645 14.214 5.633C14.348 5.608 14.508 5.612 14.608 5.537C14.854 5.353 14.888 5.519 14.948 5.697C15.093 6.142 15.194 6.595 15.255 7.107C15.097 7.025 15.141 6.814 14.963 6.866C14.779 6.92 14.965 7.076 14.88 7.176C14.655 7.008 14.638 6.656 14.337 6.562C14.257 6.538 14.187 6.412 14.11 6.466C13.995 6.546 14.157 6.63 14.145 6.755C13.923 6.501 13.666 6.549 13.429 6.671C13.201 6.787 13.049 6.997 12.905 7.236C13.05 7.324 13.191 7.268 13.327 7.248C13.629 7.204 13.896 7.199 14.092 7.516C14.21 7.706 14.432 7.765 14.665 7.666C14.984 7.531 15.278 7.713 15.29 8.053C15.335 9.271 15.084 10.421 14.496 11.493C14.452 11.573 14.429 11.708 14.314 11.696ZM11.614 2.693C11.655 2.895 11.638 3.079 11.507 3.247C11.472 3.291 11.439 3.355 11.443 3.407C11.473 3.799 11.222 3.885 10.909 4C10.491 4.154 10.037 4.31 9.867 4.812C9.812 4.976 9.701 4.962 9.608 4.839C9.416 4.586 9.21 4.36 9.201 3.994C9.195 3.696 9.037 3.407 8.972 3.104C8.92 2.864 8.657 2.837 8.442 2.818C8.25631 2.80956 8.07677 2.7489 7.924 2.643C7.818 2.566 7.768 2.485 7.932 2.455C8.202 2.404 8.382 2.185 8.607 2.093C9.467 1.744 10.357 1.495 11.296 1.803C11.542 1.884 11.786 1.973 12.046 2.063C11.988 2.179 11.9 2.208 11.827 2.252C11.657 2.354 11.576 2.498 11.615 2.693H11.614ZM10.34 10.84C10.2717 10.9015 10.2165 10.9762 10.1777 11.0595C10.1389 11.1428 10.1172 11.2331 10.114 11.325C10.095 11.6 9.969 11.809 9.688 11.894C9.531 11.941 9.458 12.011 9.413 12.204C9.33 12.561 9.072 12.834 8.733 12.994C8.58177 13.0627 8.44981 13.1676 8.34881 13.2995C8.24782 13.4314 8.1809 13.5861 8.154 13.75C8.118 14.01 7.787 14.244 8.082 14.544C7.678 14.517 7.536 14.388 7.563 14.034C7.596 13.606 7.661 13.18 7.736 12.758C7.795 12.423 7.883 12.092 7.968 11.761C8.026 11.538 7.968 11.378 7.753 11.283C7.328 11.093 7.268 10.681 7.158 10.303C7.123 10.178 7.178 10.053 7.267 9.952C7.3033 9.91251 7.33095 9.86587 7.34817 9.81506C7.36539 9.76426 7.3718 9.71042 7.367 9.657C7.347 9.361 7.533 9.187 7.832 9.24C8.178 9.301 8.574 9.247 8.802 9.616C9.35 9.718 9.618 10.345 10.235 10.358C10.488 10.364 10.54 10.651 10.34 10.84ZM5.835 8.473C5.954 8.703 6.133 8.732 6.349 8.611C6.407 8.578 6.462 8.534 6.56 8.551C6.526 8.736 6.494 8.911 6.771 8.943C6.915 8.961 6.854 9.109 6.829 9.245C6.4501 9.00383 6.02737 8.8397 5.585 8.762C5.435 8.736 5.331 8.642 5.275 8.484C5.135 8.076 4.846 7.788 4.48 7.581C4.054 7.339 3.84 6.994 3.89 6.499C3.899 6.41 3.9 6.323 3.846 6.245C3.649 5.955 3.463 5.662 3.22 5.401C2.788 4.939 2.297 4.779 1.687 4.961C1.525 5.009 1.29 5.135 1.194 5.007C1.08 4.853 1.286 4.674 1.377 4.523C1.921 3.614 1.778 3.676 2.79 3.858C3.225 3.936 3.582 3.868 3.838 3.476C4.16 2.984 4.622 2.733 5.204 2.686C5.524 2.66 5.813 2.576 6 2.27C6.081 2.137 6.25 2.091 6.399 2.04C6.932 1.853 7.484 1.8 8.044 1.82C8.118 1.823 8.221 1.805 8.244 1.899C8.269 1.992 8.174 2.029 8.107 2.064C7.829 2.207 7.556 2.343 7.374 2.624C7.121 3.014 7.146 3.217 7.558 3.457C7.805 3.602 8.045 3.743 8.158 4.027C8.178 4.08 8.241 4.143 8.182 4.182C7.999 4.304 8.117 4.412 8.182 4.526C8.206 4.569 8.23 4.618 8.194 4.662C8.148 4.718 8.085 4.701 8.034 4.672C7.914 4.605 7.8 4.532 7.682 4.462C7.563 4.392 7.598 4.304 7.655 4.214C7.761 4.046 7.679 3.984 7.516 3.971C7.439 3.964 7.359 3.971 7.282 3.959C7.047 3.921 6.975 4.033 6.964 4.254C6.944 4.647 6.933 4.652 6.552 4.534C6.275 4.448 6.232 4.691 6.119 4.83C6.007 4.969 6.033 5.108 6.173 5.211C6.298 5.305 6.425 5.407 6.568 5.461C6.766 5.536 6.941 5.615 7.031 5.826C7.059 5.894 7.164 5.982 7.199 5.866C7.269 5.633 7.504 5.441 7.389 5.156C7.325 4.999 7.322 4.831 7.502 4.754C7.679 4.678 7.81 4.811 7.887 4.941C7.977 5.093 8.054 5.194 8.247 5.112C8.319 5.082 8.365 5.164 8.42 5.202C8.707 5.401 8.842 5.706 8.99 6.004C9.02 6.065 9.06 6.137 8.973 6.18C8.896 6.219 8.813 6.2 8.771 6.12C8.716 6.013 8.665 5.864 8.527 5.993C8.421 6.093 8.167 6.143 8.312 6.393C8.391 6.527 8.253 6.509 8.198 6.52C7.831 6.593 7.598 6.814 7.454 7.152C7.42832 7.2257 7.38219 7.29056 7.321 7.339C7.07 7.496 6.986 7.707 7.075 7.999C6.713 7.637 6.42 7.597 5.97 7.854C5.767 7.97 5.708 8.228 5.835 8.473ZM8 0C5.87827 0 3.84344 0.842855 2.34315 2.34315C0.842855 3.84344 0 5.87827 0 8C0 10.1217 0.842855 12.1566 2.34315 13.6569C3.84344 15.1571 5.87827 16 8 16C10.1217 16 12.1566 15.1571 13.6569 13.6569C15.1571 12.1566 16 10.1217 16 8C16 5.87827 15.1571 3.84344 13.6569 2.34315C12.1566 0.842855 10.1217 0 8 0" fill="#5F4DBC"/>
</g>
<defs>
<clipPath id="clip0">
<rect width="16" height="16" fill="white"/>
</clipPath>
</defs>
</svg>
