<svg width="21" height="14" viewBox="0 0 21 14" fill="none" xmlns="http://www.w3.org/2000/svg">
<path d="M4.67913 2.70593C8.00818 -0.741168 13.4056 -0.741168 16.7347 2.70593L17.1353 3.12079C17.3018 3.29314 17.3018 3.57259 17.1353 3.74494L15.7648 5.16411C15.6816 5.25028 15.5466 5.25028 15.4634 5.16411L14.912 4.5932C12.5896 2.18843 8.82421 2.18843 6.50178 4.5932L5.91133 5.20459C5.8281 5.29077 5.69316 5.29077 5.60994 5.20459L4.23937 3.78543C4.07292 3.61307 4.07292 3.33363 4.23937 3.16128L4.67913 2.70593ZM19.5691 5.64091L20.789 6.90397C20.9554 7.07633 20.9554 7.35577 20.789 7.52812L15.2888 13.2234C15.1223 13.3958 14.8524 13.3958 14.686 13.2234L10.7823 9.18131C10.7407 9.13822 10.6732 9.13822 10.6316 9.18131L6.72797 13.2234C6.56152 13.3958 6.29164 13.3958 6.12519 13.2234L0.624839 7.52805C0.458387 7.3557 0.458387 7.07625 0.624839 6.9039L1.84465 5.64084C2.0111 5.46848 2.28097 5.46848 2.44743 5.64084L6.35119 9.68302C6.3928 9.72611 6.46027 9.72611 6.50188 9.68302L10.4054 5.64084C10.5719 5.46848 10.8418 5.46847 11.0082 5.64082L14.912 9.68302C14.9536 9.72611 15.0211 9.72611 15.0627 9.68302L18.9664 5.64091C19.1328 5.46855 19.4027 5.46855 19.5691 5.64091Z" fill="#3B99FC"/>
</svg>
