<svg width="21" height="22" viewBox="0 0 21 22" fill="none" xmlns="http://www.w3.org/2000/svg">
<path d="M18.3004 7.55387H1.63229C0.910314 7.55387 0.313901 6.97659 0.345291 6.27778V6.2474C0.345291 6.21702 0.313901 6.15625 0.282511 6.15625C0.251121 6.15625 0.188341 6.15625 0.188341 6.21702C0.0627803 6.49046 0 6.76391 0 7.03736V19.3425C0 20.8008 1.19283 21.9554 2.69955 21.9554H18.3004C19.8072 21.9554 21 20.8008 21 19.3425V10.1668C21 8.7388 19.7758 7.55387 18.3004 7.55387ZM16.009 16.3649C15.0359 16.3649 14.2825 15.6054 14.2825 14.6635C14.2825 13.7216 15.0673 12.9924 16.009 12.9924C16.9821 12.9924 17.7668 13.752 17.7668 14.6635C17.7354 15.6054 16.9507 16.3649 16.009 16.3649Z" fill="#B7BACC"/>
<path d="M16.7938 1.78144V6.15659H2.51132C1.85213 6.15659 1.28711 5.70084 1.28711 5.12357C1.28711 4.8805 1.38128 4.66782 1.53823 4.48553C1.53823 4.45514 1.56962 4.45514 1.60101 4.42476C1.66379 4.36399 1.75796 4.30323 1.85213 4.24246C2.04047 4.12093 2.2602 4.02978 2.47993 3.96901L14.8476 0.566122C15.8207 0.292675 16.7938 0.900335 16.7938 1.78144Z" fill="#DCDEE6"/>
</svg>
